<?xml version="1.0" encoding="UTF-8"?>
<!DOCTYPE svg PUBLIC "-//W3C//DTD SVG 1.1//EN" "http://www.w3.org/Graphics/SVG/1.1/DTD/svg11.dtd">
<svg xmlns="http://www.w3.org/2000/svg" version="1.1" width="619px" height="619px" style="shape-rendering:geometricPrecision; text-rendering:geometricPrecision; image-rendering:optimizeQuality; fill-rule:evenodd; clip-rule:evenodd" xmlns:xlink="http://www.w3.org/1999/xlink">
<g><path style="opacity:0.384" fill="#301265" d="M 368.5,105.5 C 368.5,105.833 368.5,106.167 368.5,106.5C 367.167,106.5 365.833,106.5 364.5,106.5C 336.167,106.5 307.833,106.5 279.5,106.5C 242.167,106.5 204.833,106.5 167.5,106.5C 167.5,106.167 167.5,105.833 167.5,105.5C 234.276,104.835 301.276,104.835 368.5,105.5 Z"/></g>
<g><path style="opacity:0.598" fill="#181f58" d="M 463.5,105.5 C 463.5,105.833 463.5,106.167 463.5,106.5C 431.833,106.5 400.167,106.5 368.5,106.5C 368.5,106.167 368.5,105.833 368.5,105.5C 400.202,104.33 431.869,104.33 463.5,105.5 Z"/></g>
<g><path style="opacity:0.337" fill="#21033d" d="M 167.5,105.5 C 167.5,105.833 167.5,106.167 167.5,106.5C 163.511,106.116 159.845,106.783 156.5,108.5C 153.833,108.833 151.167,109.167 148.5,109.5C 154.282,106.142 160.616,104.809 167.5,105.5 Z"/></g>
<g><path style="opacity:1" fill="#8731cc" d="M 167.5,106.5 C 204.833,106.5 242.167,106.5 279.5,106.5C 279.5,106.833 279.5,107.167 279.5,107.5C 261.167,107.5 242.833,107.5 224.5,107.5C 205.5,107.5 186.5,107.5 167.5,107.5C 163.881,108.244 160.215,108.577 156.5,108.5C 159.845,106.783 163.511,106.116 167.5,106.5 Z"/></g>
<g><path style="opacity:0.997" fill="#5465d3" d="M 364.5,106.5 C 365.833,106.5 367.167,106.5 368.5,106.5C 400.167,106.5 431.833,106.5 463.5,106.5C 463.833,106.5 464.167,106.5 464.5,106.5C 465.167,107.167 465.833,107.833 466.5,108.5C 465.5,108.5 464.5,108.5 463.5,108.5C 450.344,107.504 437.01,107.171 423.5,107.5C 405.833,107.5 388.167,107.5 370.5,107.5C 368.265,107.795 366.265,107.461 364.5,106.5 Z"/></g>
<g><path style="opacity:1" fill="#a515f1" d="M 167.5,107.5 C 170.305,108.319 173.305,108.819 176.5,109C 177.078,110.417 178.078,111.25 179.5,111.5C 177.63,116.532 176.963,121.865 177.5,127.5C 174.238,127.299 172.238,128.799 171.5,132C 172.854,139.829 174.187,147.662 175.5,155.5C 174.357,158.006 173.69,160.672 173.5,163.5C 174.224,166.827 174.39,170.161 174,173.5C 173.692,172.692 173.192,172.025 172.5,171.5C 171.571,172.689 171.238,174.022 171.5,175.5C 168.833,175.5 166.167,175.5 163.5,175.5C 163.5,178.167 163.5,180.833 163.5,183.5C 162.5,183.5 161.5,183.5 160.5,183.5C 160.5,188.833 160.5,194.167 160.5,199.5C 162.833,199.5 165.167,199.5 167.5,199.5C 167.5,202.167 167.5,204.833 167.5,207.5C 166.167,207.5 164.833,207.5 163.5,207.5C 163.5,214.167 163.5,220.833 163.5,227.5C 162.5,227.5 161.5,227.5 160.5,227.5C 160.376,236.159 159.376,244.659 157.5,253C 158.032,255.02 159.365,255.853 161.5,255.5C 161.5,258.167 161.5,260.833 161.5,263.5C 160.167,263.5 158.833,263.5 157.5,263.5C 157.762,262.022 157.429,260.689 156.5,259.5C 155.167,262.833 155.167,266.167 156.5,269.5C 158.085,266.728 159.085,266.894 159.5,270C 158.246,273.159 158.246,276.325 159.5,279.5C 159.663,282.339 158.33,284.006 155.5,284.5C 156.732,287.3 157.399,290.3 157.5,293.5C 157.167,296.167 156.833,298.833 156.5,301.5C 155.193,302.816 153.693,303.816 152,304.5C 151.503,306.81 151.337,309.143 151.5,311.5C 152.833,311.5 154.167,311.5 155.5,311.5C 155.5,314.167 155.5,316.833 155.5,319.5C 154.167,319.5 152.833,319.5 151.5,319.5C 151.5,324.833 151.5,330.167 151.5,335.5C 150.167,335.5 148.833,335.5 147.5,335.5C 147.666,345.506 147.5,355.506 147,365.5C 145.214,366.777 144.048,368.444 143.5,370.5C 144.302,373.449 144.636,376.449 144.5,379.5C 145.5,379.5 146.5,379.5 147.5,379.5C 146.053,387.788 144.053,395.955 141.5,404C 144.143,411.831 144.143,419.665 141.5,427.5C 142.475,433.482 142.642,439.482 142,445.5C 138.951,448.133 137.117,451.466 136.5,455.5C 135.505,460.792 135.172,466.125 135.5,471.5C 137.5,471.5 139.5,471.5 141.5,471.5C 141.334,479.507 141.5,487.507 142,495.5C 142.717,496.044 143.217,496.711 143.5,497.5C 141.952,497.821 141.285,498.821 141.5,500.5C 138.428,498.825 135.095,497.492 131.5,496.5C 130.412,494.417 129.412,492.251 128.5,490C 129.672,489.581 130.672,488.915 131.5,488C 129.833,487.667 128.167,487.333 126.5,487C 125.891,485.052 125.224,483.218 124.5,481.5C 124.897,479.338 126.231,478.005 128.5,477.5C 127.267,473.734 126.267,469.901 125.5,466C 126.941,463.238 127.608,460.238 127.5,457C 127.003,453.759 126.336,450.592 125.5,447.5C 130.324,447.112 132.324,444.445 131.5,439.5C 130.167,439.5 128.833,439.5 127.5,439.5C 127.333,421.497 127.5,403.497 128,385.5C 130.928,374.368 132.095,363.035 131.5,351.5C 138.399,352.987 141.732,350.321 141.5,343.5C 138.167,343.5 134.833,343.5 131.5,343.5C 130.599,339.759 131.932,337.759 135.5,337.5C 135.328,335.508 135.995,333.842 137.5,332.5C 135.74,329.788 135.073,326.788 135.5,323.5C 133.654,323.778 132.32,323.111 131.5,321.5C 133.135,320.319 134.802,320.319 136.5,321.5C 140.064,318.62 142.231,314.953 143,310.5C 143.915,303.966 143.415,297.632 141.5,291.5C 142.342,288.371 143.008,285.204 143.5,282C 143.695,279.207 143.029,276.707 141.5,274.5C 141.808,273.692 142.308,273.025 143,272.5C 143.406,266.277 144.239,260.111 145.5,254C 145.227,250.661 144.893,247.327 144.5,244C 144.34,241.53 145.007,239.364 146.5,237.5C 147.087,224.767 148.087,212.1 149.5,199.5C 150.833,199.5 152.167,199.5 153.5,199.5C 154.239,195.618 155.572,191.951 157.5,188.5C 156.208,182.338 155.541,176.004 155.5,169.5C 155.833,163.5 156.167,157.5 156.5,151.5C 159.51,142.665 160.176,133.665 158.5,124.5C 156.955,123.548 155.288,123.215 153.5,123.5C 153.594,120.459 152.094,118.793 149,118.5C 144.263,119.469 139.43,119.803 134.5,119.5C 138.91,115.749 143.576,112.416 148.5,109.5C 151.167,109.167 153.833,108.833 156.5,108.5C 160.215,108.577 163.881,108.244 167.5,107.5 Z"/></g>
<g><path style="opacity:1" fill="#8d24f0" d="M 224.5,108.5 C 227.167,108.5 229.833,108.5 232.5,108.5C 237.725,110.219 237.392,111.719 231.5,113C 232.793,113.49 234.127,113.657 235.5,113.5C 235.691,116.983 236.357,120.316 237.5,123.5C 238.833,123.5 240.167,123.5 241.5,123.5C 240.447,154.187 238.447,184.854 235.5,215.5C 234.178,215.33 233.011,215.663 232,216.5C 231.5,226.828 231.334,237.161 231.5,247.5C 230.167,247.5 228.833,247.5 227.5,247.5C 228.106,250.916 227.106,253.582 224.5,255.5C 224.167,257 223.833,258.5 223.5,260C 226.49,271.429 226.157,282.762 222.5,294C 223.67,296.068 223.504,297.901 222,299.5C 221.302,307.528 221.468,315.528 222.5,323.5C 221.5,323.5 220.5,323.5 219.5,323.5C 219.5,324.833 219.5,326.167 219.5,327.5C 216.512,327.155 215.179,328.488 215.5,331.5C 215.179,334.512 216.512,335.845 219.5,335.5C 219.5,338.167 219.5,340.833 219.5,343.5C 218.178,343.33 217.011,343.663 216,344.5C 215.501,349.489 215.334,354.489 215.5,359.5C 214.178,359.33 213.011,359.663 212,360.5C 211.503,362.81 211.337,365.143 211.5,367.5C 209.365,367.147 208.032,367.98 207.5,370C 209.38,372.76 210.713,375.76 211.5,379C 209.566,381.672 208.233,384.672 207.5,388C 209.075,394.392 209.741,400.892 209.5,407.5C 208.178,407.33 207.011,407.663 206,408.5C 205.503,410.81 205.337,413.143 205.5,415.5C 206.833,415.5 208.167,415.5 209.5,415.5C 209.5,420.833 209.5,426.167 209.5,431.5C 207.508,431.328 205.842,431.995 204.5,433.5C 204.167,437.167 203.833,440.833 203.5,444.5C 204.957,460.807 205.957,477.14 206.5,493.5C 206.339,497.248 205.339,500.582 203.5,503.5C 206.694,503.176 207.694,504.342 206.5,507C 200.213,508.107 193.88,508.607 187.5,508.5C 188.091,507.849 188.757,507.182 189.5,506.5C 185.629,504.874 181.629,503.874 177.5,503.5C 177.149,501.131 176.982,498.797 177,496.5C 179.139,497.769 181.305,497.769 183.5,496.5C 182.167,495.833 180.833,495.167 179.5,494.5C 181.173,492.477 181.84,490.144 181.5,487.5C 182.833,487.5 184.167,487.5 185.5,487.5C 185.5,484.833 185.5,482.167 185.5,479.5C 184.167,479.5 182.833,479.5 181.5,479.5C 182.615,471.882 183.449,464.216 184,456.5C 185.699,455.594 187.533,455.261 189.5,455.5C 189.954,443.096 189.287,430.763 187.5,418.5C 188.034,415.085 188.867,411.751 190,408.5C 191.011,407.663 192.178,407.33 193.5,407.5C 193.422,397.999 194.088,388.666 195.5,379.5C 194.5,379.5 193.5,379.5 192.5,379.5C 192.405,375.775 192.238,372.109 192,368.5C 193.584,367.139 195.418,366.472 197.5,366.5C 197.338,364.473 197.505,362.473 198,360.5C 199.011,359.663 200.178,359.33 201.5,359.5C 200.833,356.833 200.167,354.167 199.5,351.5C 197.194,351.007 194.861,350.674 192.5,350.5C 192.5,349.5 192.5,348.5 192.5,347.5C 193.5,347.5 194.5,347.5 195.5,347.5C 195.5,346.167 195.5,344.833 195.5,343.5C 196.833,343.5 198.167,343.5 199.5,343.5C 199.5,342.167 199.5,340.833 199.5,339.5C 197.167,339.5 194.833,339.5 192.5,339.5C 192.504,327.644 193.504,315.977 195.5,304.5C 194.975,303.808 194.308,303.308 193.5,303C 198.152,302.519 200.485,300.019 200.5,295.5C 201.5,295.5 202.5,295.5 203.5,295.5C 203.222,293.654 203.889,292.32 205.5,291.5C 206.331,284.858 206.831,278.191 207,271.5C 208.356,270.62 209.856,270.286 211.5,270.5C 211.5,268.167 211.5,265.833 211.5,263.5C 208.833,263.5 206.167,263.5 203.5,263.5C 202.676,258.555 204.676,255.888 209.5,255.5C 209.114,247.368 209.781,239.368 211.5,231.5C 212.833,231.5 214.167,231.5 215.5,231.5C 215.334,221.161 215.5,210.828 216,200.5C 217.011,199.663 218.178,199.33 219.5,199.5C 221.031,194.308 221.697,188.974 221.5,183.5C 220.167,183.5 218.833,183.5 217.5,183.5C 217.201,181.396 217.534,179.396 218.5,177.5C 220.682,175.131 222.349,172.465 223.5,169.5C 222.236,165.521 222.236,161.521 223.5,157.5C 222.246,155.666 221.579,153.666 221.5,151.5C 222.833,151.5 224.167,151.5 225.5,151.5C 225.5,140.833 225.5,130.167 225.5,119.5C 224.167,119.5 222.833,119.5 221.5,119.5C 221.551,117.43 220.885,115.597 219.5,114C 219.743,113.098 220.077,112.265 220.5,111.5C 222.233,110.992 222.566,110.159 221.5,109C 222.448,108.517 223.448,108.351 224.5,108.5 Z"/></g>
<g><path style="opacity:1" fill="#5a4eed" d="M 279.5,107.5 C 279.5,107.167 279.5,106.833 279.5,106.5C 307.833,106.5 336.167,106.5 364.5,106.5C 366.265,107.461 368.265,107.795 370.5,107.5C 377.313,108.491 384.313,108.825 391.5,108.5C 388.523,108.902 385.857,109.902 383.5,111.5C 383.5,112.833 383.5,114.167 383.5,115.5C 382.167,115.5 380.833,115.5 379.5,115.5C 379.5,116.833 379.5,118.167 379.5,119.5C 380.833,119.5 382.167,119.5 383.5,119.5C 382.312,130.193 380.979,140.86 379.5,151.5C 378.167,151.5 376.833,151.5 375.5,151.5C 375.5,154.167 375.5,156.833 375.5,159.5C 374.167,159.5 372.833,159.5 371.5,159.5C 371.5,162.167 371.5,164.833 371.5,167.5C 372.833,167.5 374.167,167.5 375.5,167.5C 375.666,172.844 375.499,178.177 375,183.5C 373.173,185.24 373.34,186.907 375.5,188.5C 374.833,189.833 373.833,190.833 372.5,191.5C 371.167,196.833 369.833,202.167 368.5,207.5C 367.27,220.919 366.27,234.252 365.5,247.5C 363.5,247.5 361.5,247.5 359.5,247.5C 359.5,255.5 359.5,263.5 359.5,271.5C 358.167,271.5 356.833,271.5 355.5,271.5C 355.942,276.691 355.442,281.691 354,286.5C 353.832,265.996 353.332,245.663 352.5,225.5C 353.148,192.277 352.482,159.277 350.5,126.5C 351.458,126.047 352.292,125.381 353,124.5C 353.333,120.5 353.667,116.5 354,112.5C 354.833,111 356,109.833 357.5,109C 346.839,108.5 336.172,108.333 325.5,108.5C 310.175,107.856 294.842,107.523 279.5,107.5 Z"/></g>
<g><path style="opacity:1" fill="#475eef" d="M 370.5,107.5 C 388.167,107.5 405.833,107.5 423.5,107.5C 424.568,108.434 425.901,108.768 427.5,108.5C 428.091,109.151 428.757,109.818 429.5,110.5C 428.248,112.001 427.248,113.668 426.5,115.5C 425.833,114.167 425.167,112.833 424.5,111.5C 423.353,113.765 423.186,116.098 424,118.5C 425.011,119.337 426.178,119.67 427.5,119.5C 428.477,122.802 429.477,126.135 430.5,129.5C 428.549,133.969 427.549,138.635 427.5,143.5C 423.846,143.942 420.179,144.276 416.5,144.5C 416.5,145.5 416.5,146.5 416.5,147.5C 418.833,147.5 421.167,147.5 423.5,147.5C 423.5,150.167 423.5,152.833 423.5,155.5C 424.978,155.238 426.311,155.571 427.5,156.5C 424.215,158.72 420.549,159.887 416.5,160C 415.802,164.056 416.635,167.889 419,171.5C 419.167,174.833 419.333,178.167 419.5,181.5C 417.483,190.794 416.15,200.294 415.5,210C 416.885,211.597 417.551,213.43 417.5,215.5C 416.167,215.5 414.833,215.5 413.5,215.5C 413.201,229.53 413.534,243.53 414.5,257.5C 412.896,261.366 411.896,265.366 411.5,269.5C 410.167,269.5 408.833,269.5 407.5,269.5C 407.5,270.833 407.5,272.167 407.5,273.5C 405.208,273.756 403.041,273.423 401,272.5C 400.517,273.448 400.351,274.448 400.5,275.5C 402.833,275.5 405.167,275.5 407.5,275.5C 407.5,276.833 407.5,278.167 407.5,279.5C 406.167,279.5 404.833,279.5 403.5,279.5C 404.336,282.592 405.003,285.759 405.5,289C 405.333,290.833 405.167,292.667 405,294.5C 403.243,295.119 402.076,296.286 401.5,298C 402.833,301.667 404.167,305.333 405.5,309C 404.924,310.714 403.757,311.881 402,312.5C 401.501,317.489 401.334,322.489 401.5,327.5C 400.167,327.5 398.833,327.5 397.5,327.5C 397.5,330.167 397.5,332.833 397.5,335.5C 398.833,335.5 400.167,335.5 401.5,335.5C 401.827,340.544 401.494,345.544 400.5,350.5C 399.522,350.977 398.689,351.643 398,352.5C 395.751,367.397 394.918,382.397 395.5,397.5C 394.167,397.5 392.833,397.5 391.5,397.5C 391.5,398.833 391.5,400.167 391.5,401.5C 389.208,401.756 387.041,401.423 385,400.5C 384.002,405.143 383.668,409.81 384,414.5C 385.399,415.227 386.899,415.727 388.5,416C 389.489,417.82 390.489,419.653 391.5,421.5C 390.565,424.471 389.732,427.471 389,430.5C 387.301,431.406 385.467,431.739 383.5,431.5C 383.667,447.837 383.5,464.17 383,480.5C 381.989,481.337 380.822,481.67 379.5,481.5C 380.958,486.974 381.791,492.64 382,498.5C 384.041,500.479 385.541,502.812 386.5,505.5C 381.574,506.741 376.574,507.574 371.5,508C 369.973,509.032 368.64,510.199 367.5,511.5C 351.167,511.5 334.833,511.5 318.5,511.5C 317.624,511.631 316.957,511.298 316.5,510.5C 317.325,508.199 317.992,505.865 318.5,503.5C 318.833,503.5 319.167,503.5 319.5,503.5C 319.326,505.861 318.993,508.194 318.5,510.5C 326.167,510.5 333.833,510.5 341.5,510.5C 349.174,510.666 356.841,510.5 364.5,510C 364.043,509.586 363.709,509.086 363.5,508.5C 365.482,507.784 367.149,506.617 368.5,505C 367.801,501.2 367.135,497.367 366.5,493.5C 367.308,483.88 367.808,474.214 368,464.5C 369,463.5 370,462.5 371,461.5C 371.5,448.838 371.667,436.171 371.5,423.5C 374.167,423.5 376.833,423.5 379.5,423.5C 380.027,420.769 380.86,418.102 382,415.5C 382.171,410.136 382.671,404.802 383.5,399.5C 384.086,399.291 384.586,398.957 385,398.5C 385.318,386.823 385.318,375.157 385,363.5C 385.112,360.553 386.612,359.22 389.5,359.5C 390.646,340.931 391.98,322.431 393.5,304C 391.524,300.085 391.024,295.918 392,291.5C 396.218,288.698 398.385,284.698 398.5,279.5C 399.333,264.845 399.833,250.178 400,235.5C 400.417,232.578 401.417,229.911 403,227.5C 403.499,223.514 403.666,219.514 403.5,215.5C 404.833,215.5 406.167,215.5 407.5,215.5C 407.334,207.493 407.5,199.493 408,191.5C 409.011,190.663 410.178,190.33 411.5,190.5C 411.5,188.167 411.5,185.833 411.5,183.5C 410.5,183.5 409.5,183.5 408.5,183.5C 408.167,181.5 407.833,179.5 407.5,177.5C 408.833,177.5 410.167,177.5 411.5,177.5C 411.335,174.482 411.502,171.482 412,168.5C 414.272,165.078 414.772,161.412 413.5,157.5C 413.722,155.945 414.389,154.611 415.5,153.5C 414.884,146.222 414.884,138.888 415.5,131.5C 415.3,126.261 414.633,121.094 413.5,116C 413.559,114.564 413.892,113.231 414.5,112C 411.833,111.667 409.167,111.333 406.5,111C 411.547,110.662 416.547,109.995 421.5,109C 416.177,108.501 410.844,108.334 405.5,108.5C 400.833,108.5 396.167,108.5 391.5,108.5C 384.313,108.825 377.313,108.491 370.5,107.5 Z"/></g>
<g><path style="opacity:1" fill="#3b68ef" d="M 450.5,111.5 C 449.766,112.708 449.433,114.041 449.5,115.5C 451.5,115.5 453.5,115.5 455.5,115.5C 455.5,132.833 455.5,150.167 455.5,167.5C 454.167,167.5 452.833,167.5 451.5,167.5C 451.335,171.182 451.501,174.848 452,178.5C 453.011,179.337 454.178,179.67 455.5,179.5C 455.5,180.833 455.5,182.167 455.5,183.5C 454.178,183.33 453.011,183.663 452,184.5C 452.232,189.927 451.065,194.927 448.5,199.5C 447.747,223.56 446.413,247.56 444.5,271.5C 442.124,273.627 441.124,276.293 441.5,279.5C 439.533,279.261 437.699,279.594 436,280.5C 436.346,294.742 434.846,308.742 431.5,322.5C 433.054,334.625 433.721,346.959 433.5,359.5C 431.365,359.147 430.032,359.98 429.5,362C 430.388,363.22 431.055,364.553 431.5,366C 431.006,370.634 430.006,375.134 428.5,379.5C 427.503,386.803 427.169,394.137 427.5,401.5C 426.167,401.5 424.833,401.5 423.5,401.5C 423.5,406.833 423.5,412.167 423.5,417.5C 421.508,417.672 419.842,417.005 418.5,415.5C 417.167,418.167 417.167,420.833 418.5,423.5C 419.429,422.311 419.762,420.978 419.5,419.5C 420.833,419.5 422.167,419.5 423.5,419.5C 423.5,423.5 423.5,427.5 423.5,431.5C 421.5,431.5 419.5,431.5 417.5,431.5C 417.912,440.77 417.245,449.937 415.5,459C 414.717,462.594 416.05,464.427 419.5,464.5C 419.5,466.833 419.5,469.167 419.5,471.5C 418.167,471.5 416.833,471.5 415.5,471.5C 415.478,475.593 414.811,479.593 413.5,483.5C 415.231,489.29 415.897,495.29 415.5,501.5C 412.753,501.187 410.086,501.52 407.5,502.5C 409.5,503.167 411.5,503.833 413.5,504.5C 410.232,505.487 406.898,505.82 403.5,505.5C 402.554,504.069 401.388,502.736 400,501.5C 398.575,493.478 398.909,485.478 401,477.5C 402.456,476.08 403.956,474.747 405.5,473.5C 404.68,471.889 403.346,471.222 401.5,471.5C 401.337,469.143 401.503,466.81 402,464.5C 403.726,461.715 404.893,458.715 405.5,455.5C 404.5,455.5 403.5,455.5 402.5,455.5C 403.101,445.177 403.601,434.844 404,424.5C 404.638,423.391 405.138,422.225 405.5,421C 404.167,417.333 402.833,413.667 401.5,410C 402.833,408.333 404.167,406.667 405.5,405C 404.115,403.403 403.449,401.57 403.5,399.5C 410.184,401.258 413.518,398.592 413.5,391.5C 412.167,391.5 410.833,391.5 409.5,391.5C 409.201,389.396 409.534,387.396 410.5,385.5C 412.682,383.131 414.349,380.465 415.5,377.5C 414.227,373.196 414.894,369.196 417.5,365.5C 416.663,360.14 415.663,354.806 414.5,349.5C 415.022,348.393 415.355,347.226 415.5,346C 414.626,337.355 413.96,328.689 413.5,320C 413.309,316.302 413.976,312.802 415.5,309.5C 413.553,305.364 413.053,301.03 414,296.5C 415.011,295.663 416.178,295.33 417.5,295.5C 418.167,291.5 418.833,287.5 419.5,283.5C 418.5,283.5 417.5,283.5 416.5,283.5C 415.588,279.869 415.421,276.203 416,272.5C 417.399,271.773 418.899,271.273 420.5,271C 421.022,270.439 421.355,269.772 421.5,269C 420.115,267.403 419.449,265.57 419.5,263.5C 422.272,264.371 424.938,264.371 427.5,263.5C 429.687,255.188 431.521,246.855 433,238.5C 433.438,217.87 433.438,197.203 433,176.5C 433.414,176.957 433.914,177.291 434.5,177.5C 435.004,174.658 436.671,173.325 439.5,173.5C 439.5,167.5 439.5,161.5 439.5,155.5C 440.833,155.5 442.167,155.5 443.5,155.5C 443.215,151.975 443.881,148.642 445.5,145.5C 444.246,143.666 443.579,141.666 443.5,139.5C 442.167,139.5 440.833,139.5 439.5,139.5C 439.167,136.5 440.5,135.167 443.5,135.5C 443.5,134.167 443.5,132.833 443.5,131.5C 444.5,131.5 445.5,131.5 446.5,131.5C 446.5,127.5 446.5,123.5 446.5,119.5C 445.5,119.5 444.5,119.5 443.5,119.5C 444.015,115.646 445.849,112.646 449,110.5C 449.383,111.056 449.883,111.389 450.5,111.5 Z"/></g>
<g><path style="opacity:1" fill="#9e19f1" d="M 179.5,111.5 C 184.833,111.5 190.167,111.5 195.5,111.5C 194.833,114.167 194.167,116.833 193.5,119.5C 192.167,119.5 190.833,119.5 189.5,119.5C 189.5,122.167 189.5,124.833 189.5,127.5C 190.833,127.5 192.167,127.5 193.5,127.5C 194.167,130.167 194.833,132.833 195.5,135.5C 188.251,133.917 185.584,136.75 187.5,144C 188.036,148.519 188.703,153.019 189.5,157.5C 188.347,162.037 187.68,166.704 187.5,171.5C 186.167,171.5 184.833,171.5 183.5,171.5C 183.167,174.5 184.5,175.833 187.5,175.5C 187.682,177.675 188.349,179.675 189.5,181.5C 187.644,187.271 186.978,193.271 187.5,199.5C 184.833,199.5 182.167,199.5 179.5,199.5C 179.5,200.833 179.5,202.167 179.5,203.5C 180.833,203.5 182.167,203.5 183.5,203.5C 183.5,206.167 183.5,208.833 183.5,211.5C 184.833,211.5 186.167,211.5 187.5,211.5C 187.5,212.833 187.5,214.167 187.5,215.5C 186.167,215.5 184.833,215.5 183.5,215.5C 183.5,220.833 183.5,226.167 183.5,231.5C 182.178,231.33 181.011,231.663 180,232.5C 178.222,241.374 176.722,250.374 175.5,259.5C 176.833,259.5 178.167,259.5 179.5,259.5C 178.039,265.709 177.206,272.042 177,278.5C 175.989,279.337 174.822,279.67 173.5,279.5C 173.5,282.167 173.5,284.833 173.5,287.5C 176.488,287.155 177.821,288.488 177.5,291.5C 177.821,294.512 176.488,295.845 173.5,295.5C 172.623,298.752 171.957,302.085 171.5,305.5C 172.167,309.5 172.833,313.5 173.5,317.5C 173.043,320.915 172.377,324.248 171.5,327.5C 168.512,327.155 167.179,328.488 167.5,331.5C 167.179,334.512 168.512,335.845 171.5,335.5C 171.5,338.167 171.5,340.833 171.5,343.5C 170.178,343.33 169.011,343.663 168,344.5C 167.501,349.489 167.334,354.489 167.5,359.5C 166.178,359.33 165.011,359.663 164,360.5C 163.968,368.665 163.302,376.665 162,384.5C 161.5,397.496 161.333,410.496 161.5,423.5C 160.167,423.5 158.833,423.5 157.5,423.5C 157.5,426.167 157.5,428.833 157.5,431.5C 158.833,431.5 160.167,431.5 161.5,431.5C 161.666,436.511 161.499,441.511 161,446.5C 157.943,447.39 156.109,449.39 155.5,452.5C 156.573,456.084 157.24,459.75 157.5,463.5C 155.871,472.783 155.371,482.117 156,491.5C 157.746,493.708 158.913,496.208 159.5,499C 158.965,500.872 158.965,502.538 159.5,504C 160,504.167 160.5,504.333 161,504.5C 163.032,501.365 165.532,500.865 168.5,503C 165.638,503.24 163.305,504.407 161.5,506.5C 160.167,505.833 158.833,505.167 157.5,504.5C 153.14,506.685 148.807,506.352 144.5,503.5C 143.652,501.591 143.318,499.591 143.5,497.5C 143.217,496.711 142.717,496.044 142,495.5C 141.5,487.507 141.334,479.507 141.5,471.5C 139.5,471.5 137.5,471.5 135.5,471.5C 135.172,466.125 135.505,460.792 136.5,455.5C 137.117,451.466 138.951,448.133 142,445.5C 142.642,439.482 142.475,433.482 141.5,427.5C 144.143,419.665 144.143,411.831 141.5,404C 144.053,395.955 146.053,387.788 147.5,379.5C 146.5,379.5 145.5,379.5 144.5,379.5C 144.636,376.449 144.302,373.449 143.5,370.5C 144.048,368.444 145.214,366.777 147,365.5C 147.5,355.506 147.666,345.506 147.5,335.5C 148.833,335.5 150.167,335.5 151.5,335.5C 151.5,330.167 151.5,324.833 151.5,319.5C 152.833,319.5 154.167,319.5 155.5,319.5C 155.5,316.833 155.5,314.167 155.5,311.5C 154.167,311.5 152.833,311.5 151.5,311.5C 151.337,309.143 151.503,306.81 152,304.5C 153.693,303.816 155.193,302.816 156.5,301.5C 156.833,298.833 157.167,296.167 157.5,293.5C 157.399,290.3 156.732,287.3 155.5,284.5C 158.33,284.006 159.663,282.339 159.5,279.5C 158.246,276.325 158.246,273.159 159.5,270C 159.085,266.894 158.085,266.728 156.5,269.5C 155.167,266.167 155.167,262.833 156.5,259.5C 157.429,260.689 157.762,262.022 157.5,263.5C 158.833,263.5 160.167,263.5 161.5,263.5C 161.5,260.833 161.5,258.167 161.5,255.5C 159.365,255.853 158.032,255.02 157.5,253C 159.376,244.659 160.376,236.159 160.5,227.5C 161.5,227.5 162.5,227.5 163.5,227.5C 163.5,220.833 163.5,214.167 163.5,207.5C 164.833,207.5 166.167,207.5 167.5,207.5C 167.5,204.833 167.5,202.167 167.5,199.5C 165.167,199.5 162.833,199.5 160.5,199.5C 160.5,194.167 160.5,188.833 160.5,183.5C 161.5,183.5 162.5,183.5 163.5,183.5C 163.5,180.833 163.5,178.167 163.5,175.5C 166.167,175.5 168.833,175.5 171.5,175.5C 171.238,174.022 171.571,172.689 172.5,171.5C 173.192,172.025 173.692,172.692 174,173.5C 174.39,170.161 174.224,166.827 173.5,163.5C 173.69,160.672 174.357,158.006 175.5,155.5C 174.187,147.662 172.854,139.829 171.5,132C 172.238,128.799 174.238,127.299 177.5,127.5C 176.963,121.865 177.63,116.532 179.5,111.5 Z"/></g>
<g><path style="opacity:1" fill="#981cf0" d="M 167.5,107.5 C 186.5,107.5 205.5,107.5 224.5,107.5C 224.5,107.833 224.5,108.167 224.5,108.5C 223.448,108.351 222.448,108.517 221.5,109C 222.566,110.159 222.233,110.992 220.5,111.5C 216.116,111.174 211.783,111.508 207.5,112.5C 208.415,113.328 209.081,114.328 209.5,115.5C 207.14,119.503 206.14,123.837 206.5,128.5C 207.48,139.156 207.646,149.823 207,160.5C 205.989,161.337 204.822,161.67 203.5,161.5C 203.5,168.833 203.5,176.167 203.5,183.5C 202.178,183.33 201.011,183.663 200,184.5C 199.5,194.828 199.334,205.161 199.5,215.5C 198.167,215.5 196.833,215.5 195.5,215.5C 195.5,216.833 195.5,218.167 195.5,219.5C 194.5,219.5 193.5,219.5 192.5,219.5C 192.5,220.5 192.5,221.5 192.5,222.5C 194.527,222.338 196.527,222.505 198.5,223C 200.162,227.539 199.495,231.706 196.5,235.5C 195.833,241.833 195.167,248.167 194.5,254.5C 192.444,255.628 191.444,257.462 191.5,260C 192.067,263.861 192.733,267.695 193.5,271.5C 190.512,271.155 189.179,272.488 189.5,275.5C 189.179,278.512 190.512,279.845 193.5,279.5C 193.5,282.167 193.5,284.833 193.5,287.5C 192.178,287.33 191.011,287.663 190,288.5C 189.503,290.81 189.337,293.143 189.5,295.5C 187.654,295.222 186.32,295.889 185.5,297.5C 186.32,299.111 187.654,299.778 189.5,299.5C 188.119,312.119 187.453,324.786 187.5,337.5C 186.167,337.5 184.833,337.5 183.5,337.5C 183.073,342.847 183.74,348.181 185.5,353.5C 184.207,360.446 183.374,367.446 183,374.5C 181.644,375.38 180.144,375.714 178.5,375.5C 178.217,387.301 178.217,399.134 178.5,411C 178.742,413.348 177.908,415.182 176,416.5C 175.99,428.242 175.157,439.909 173.5,451.5C 173.501,460.355 173.668,469.355 174,478.5C 174.923,480.034 175.423,481.701 175.5,483.5C 173.075,489.4 172.908,495.4 175,501.5C 175.417,502.756 176.25,503.423 177.5,503.5C 181.629,503.874 185.629,504.874 189.5,506.5C 188.757,507.182 188.091,507.849 187.5,508.5C 184.15,508.335 180.817,508.502 177.5,509C 176.584,509.278 175.918,509.778 175.5,510.5C 166.647,510.805 157.981,510.138 149.5,508.5C 149.158,507.662 148.492,507.328 147.5,507.5C 145.434,505.801 143.1,504.468 140.5,503.5C 137.208,501.542 134.208,499.209 131.5,496.5C 135.095,497.492 138.428,498.825 141.5,500.5C 141.285,498.821 141.952,497.821 143.5,497.5C 143.318,499.591 143.652,501.591 144.5,503.5C 148.807,506.352 153.14,506.685 157.5,504.5C 158.833,505.167 160.167,505.833 161.5,506.5C 163.305,504.407 165.638,503.24 168.5,503C 165.532,500.865 163.032,501.365 161,504.5C 160.5,504.333 160,504.167 159.5,504C 158.965,502.538 158.965,500.872 159.5,499C 158.913,496.208 157.746,493.708 156,491.5C 155.371,482.117 155.871,472.783 157.5,463.5C 157.24,459.75 156.573,456.084 155.5,452.5C 156.109,449.39 157.943,447.39 161,446.5C 161.499,441.511 161.666,436.511 161.5,431.5C 160.167,431.5 158.833,431.5 157.5,431.5C 157.5,428.833 157.5,426.167 157.5,423.5C 158.833,423.5 160.167,423.5 161.5,423.5C 161.333,410.496 161.5,397.496 162,384.5C 163.302,376.665 163.968,368.665 164,360.5C 165.011,359.663 166.178,359.33 167.5,359.5C 167.334,354.489 167.501,349.489 168,344.5C 169.011,343.663 170.178,343.33 171.5,343.5C 171.5,340.833 171.5,338.167 171.5,335.5C 168.512,335.845 167.179,334.512 167.5,331.5C 167.179,328.488 168.512,327.155 171.5,327.5C 172.377,324.248 173.043,320.915 173.5,317.5C 172.833,313.5 172.167,309.5 171.5,305.5C 171.957,302.085 172.623,298.752 173.5,295.5C 176.488,295.845 177.821,294.512 177.5,291.5C 177.821,288.488 176.488,287.155 173.5,287.5C 173.5,284.833 173.5,282.167 173.5,279.5C 174.822,279.67 175.989,279.337 177,278.5C 177.206,272.042 178.039,265.709 179.5,259.5C 178.167,259.5 176.833,259.5 175.5,259.5C 176.722,250.374 178.222,241.374 180,232.5C 181.011,231.663 182.178,231.33 183.5,231.5C 183.5,226.167 183.5,220.833 183.5,215.5C 184.833,215.5 186.167,215.5 187.5,215.5C 187.5,214.167 187.5,212.833 187.5,211.5C 186.167,211.5 184.833,211.5 183.5,211.5C 183.5,208.833 183.5,206.167 183.5,203.5C 182.167,203.5 180.833,203.5 179.5,203.5C 179.5,202.167 179.5,200.833 179.5,199.5C 182.167,199.5 184.833,199.5 187.5,199.5C 186.978,193.271 187.644,187.271 189.5,181.5C 188.349,179.675 187.682,177.675 187.5,175.5C 184.5,175.833 183.167,174.5 183.5,171.5C 184.833,171.5 186.167,171.5 187.5,171.5C 187.68,166.704 188.347,162.037 189.5,157.5C 188.703,153.019 188.036,148.519 187.5,144C 185.584,136.75 188.251,133.917 195.5,135.5C 194.833,132.833 194.167,130.167 193.5,127.5C 192.167,127.5 190.833,127.5 189.5,127.5C 189.5,124.833 189.5,122.167 189.5,119.5C 190.833,119.5 192.167,119.5 193.5,119.5C 194.167,116.833 194.833,114.167 195.5,111.5C 190.167,111.5 184.833,111.5 179.5,111.5C 178.078,111.25 177.078,110.417 176.5,109C 173.305,108.819 170.305,108.319 167.5,107.5 Z"/></g>
<g><path style="opacity:1" fill="#8628ef" d="M 232.5,108.5 C 240.5,108.5 248.5,108.5 256.5,108.5C 255.859,109.482 255.193,110.482 254.5,111.5C 256.18,114.861 257.847,118.194 259.5,121.5C 259.291,122.086 258.957,122.586 258.5,123C 259.3,127.08 259.8,131.247 260,135.5C 260.692,136.025 261.192,136.692 261.5,137.5C 258.115,149.199 255.115,161.199 252.5,173.5C 251.502,182.141 251.169,190.808 251.5,199.5C 250.167,199.5 248.833,199.5 247.5,199.5C 247.5,208.167 247.5,216.833 247.5,225.5C 239.5,226.167 239.5,226.833 247.5,227.5C 247.665,231.182 247.499,234.848 247,238.5C 244.667,239.167 242.333,239.833 240,240.5C 239.833,256.177 239.333,271.844 238.5,287.5C 236.124,289.627 235.124,292.293 235.5,295.5C 236.833,295.5 238.167,295.5 239.5,295.5C 238.946,302.153 238.612,308.82 238.5,315.5C 237.5,315.5 236.5,315.5 235.5,315.5C 235.5,317.5 235.5,319.5 235.5,321.5C 234.167,321.5 232.833,321.5 231.5,321.5C 231.5,323.5 231.5,325.5 231.5,327.5C 233.833,327.5 236.167,327.5 238.5,327.5C 238.5,334.833 238.5,342.167 238.5,349.5C 236.201,350.138 234.034,351.138 232,352.5C 231.5,360.159 231.334,367.826 231.5,375.5C 230.167,375.5 228.833,375.5 227.5,375.5C 227.5,376.833 227.5,378.167 227.5,379.5C 226.5,379.5 225.5,379.5 224.5,379.5C 225.009,392.886 225.842,406.22 227,419.5C 224.357,423.374 223.024,427.707 223,432.5C 220.919,433.333 218.752,433.333 216.5,432.5C 216.5,436.833 216.5,441.167 216.5,445.5C 218.821,445.771 220.821,445.104 222.5,443.5C 223.248,448.942 222.581,454.275 220.5,459.5C 218.985,472.287 219.652,484.954 222.5,497.5C 221.844,499.453 221.511,501.453 221.5,503.5C 219.396,503.201 217.396,503.534 215.5,504.5C 216.689,505.429 218.022,505.762 219.5,505.5C 219.5,506.5 219.5,507.5 219.5,508.5C 220.833,508.5 222.167,508.5 223.5,508.5C 222.833,509.167 222.167,509.833 221.5,510.5C 206.167,510.5 190.833,510.5 175.5,510.5C 175.918,509.778 176.584,509.278 177.5,509C 180.817,508.502 184.15,508.335 187.5,508.5C 193.88,508.607 200.213,508.107 206.5,507C 207.694,504.342 206.694,503.176 203.5,503.5C 205.339,500.582 206.339,497.248 206.5,493.5C 205.957,477.14 204.957,460.807 203.5,444.5C 203.833,440.833 204.167,437.167 204.5,433.5C 205.842,431.995 207.508,431.328 209.5,431.5C 209.5,426.167 209.5,420.833 209.5,415.5C 208.167,415.5 206.833,415.5 205.5,415.5C 205.337,413.143 205.503,410.81 206,408.5C 207.011,407.663 208.178,407.33 209.5,407.5C 209.741,400.892 209.075,394.392 207.5,388C 208.233,384.672 209.566,381.672 211.5,379C 210.713,375.76 209.38,372.76 207.5,370C 208.032,367.98 209.365,367.147 211.5,367.5C 211.337,365.143 211.503,362.81 212,360.5C 213.011,359.663 214.178,359.33 215.5,359.5C 215.334,354.489 215.501,349.489 216,344.5C 217.011,343.663 218.178,343.33 219.5,343.5C 219.5,340.833 219.5,338.167 219.5,335.5C 216.512,335.845 215.179,334.512 215.5,331.5C 215.179,328.488 216.512,327.155 219.5,327.5C 219.5,326.167 219.5,324.833 219.5,323.5C 220.5,323.5 221.5,323.5 222.5,323.5C 221.468,315.528 221.302,307.528 222,299.5C 223.504,297.901 223.67,296.068 222.5,294C 226.157,282.762 226.49,271.429 223.5,260C 223.833,258.5 224.167,257 224.5,255.5C 227.106,253.582 228.106,250.916 227.5,247.5C 228.833,247.5 230.167,247.5 231.5,247.5C 231.334,237.161 231.5,226.828 232,216.5C 233.011,215.663 234.178,215.33 235.5,215.5C 238.447,184.854 240.447,154.187 241.5,123.5C 240.167,123.5 238.833,123.5 237.5,123.5C 236.357,120.316 235.691,116.983 235.5,113.5C 234.127,113.657 232.793,113.49 231.5,113C 237.392,111.719 237.725,110.219 232.5,108.5 Z"/></g>
<g><path style="opacity:1" fill="#7f2dee" d="M 256.5,108.5 C 266.839,108.334 277.172,108.5 287.5,109C 281.99,109.05 276.657,109.717 271.5,111C 271.41,113.368 271.743,115.868 272.5,118.5C 276.122,120.722 277.122,123.722 275.5,127.5C 274.833,127.5 274.5,127.833 274.5,128.5C 273.414,128.62 272.747,129.287 272.5,130.5C 273.632,150.118 273.632,169.784 272.5,189.5C 271.937,198.706 271.27,206.04 270.5,211.5C 268.167,211.5 265.833,211.5 263.5,211.5C 263.5,212.833 263.5,214.167 263.5,215.5C 262.167,215.5 260.833,215.5 259.5,215.5C 259.5,218.167 259.5,220.833 259.5,223.5C 260.833,223.5 262.167,223.5 263.5,223.5C 263.5,226.167 263.5,228.833 263.5,231.5C 262.167,231.5 260.833,231.5 259.5,231.5C 259.5,236.833 259.5,242.167 259.5,247.5C 260.833,247.5 262.167,247.5 263.5,247.5C 263.5,252.833 263.5,258.167 263.5,263.5C 262.167,263.5 260.833,263.5 259.5,263.5C 259.82,260.102 259.487,256.768 258.5,253.5C 257.158,255.005 255.492,255.672 253.5,255.5C 253.5,258.167 253.5,260.833 253.5,263.5C 254.5,263.5 255.5,263.5 256.5,263.5C 256.5,266.167 256.5,268.833 256.5,271.5C 255.5,271.5 254.5,271.5 253.5,271.5C 253.5,274.167 253.5,276.833 253.5,279.5C 254.833,279.5 256.167,279.5 257.5,279.5C 257.238,280.978 257.571,282.311 258.5,283.5C 259.321,280.553 259.821,277.553 260,274.5C 261.011,275.337 262.178,275.67 263.5,275.5C 263.5,278.833 263.5,282.167 263.5,285.5C 260.035,284.873 256.702,285.54 253.5,287.5C 253.582,292.544 253.749,297.544 254,302.5C 252.605,303.815 251.605,303.481 251,301.5C 248.874,303.377 246.374,304.377 243.5,304.5C 243.5,306.833 243.5,309.167 243.5,311.5C 248.167,311.5 252.833,311.5 257.5,311.5C 257.5,314.167 257.5,316.833 257.5,319.5C 255.508,319.328 253.842,319.995 252.5,321.5C 251.833,336.167 251.167,350.833 250.5,365.5C 249.833,366.167 249.167,366.833 248.5,367.5C 247.52,364.914 247.187,362.247 247.5,359.5C 246.167,359.5 244.833,359.5 243.5,359.5C 242.966,364.984 241.966,370.318 240.5,375.5C 241.5,375.5 242.5,375.5 243.5,375.5C 243.5,388.167 243.5,400.833 243.5,413.5C 242.5,413.5 241.5,413.5 240.5,413.5C 240.881,415.942 240.214,416.609 238.5,415.5C 237.941,427.215 236.941,438.882 235.5,450.5C 237.411,457.443 237.744,464.443 236.5,471.5C 235.663,473.844 234.329,475.844 232.5,477.5C 231.833,475.5 231.167,473.5 230.5,471.5C 228.874,475.371 227.874,479.371 227.5,483.5C 228.833,483.5 230.167,483.5 231.5,483.5C 231.361,477.868 233.361,477.534 237.5,482.5C 235.995,483.842 235.328,485.508 235.5,487.5C 232.938,488.371 230.272,488.371 227.5,487.5C 227.449,489.57 228.115,491.403 229.5,493C 229.355,493.772 229.022,494.439 228.5,495C 226.899,495.273 225.399,495.773 224,496.5C 223.982,498.797 224.149,501.131 224.5,503.5C 226.833,503.5 229.167,503.5 231.5,503.5C 231.176,499.445 231.509,495.445 232.5,491.5C 233.429,492.689 233.762,494.022 233.5,495.5C 234.833,495.5 236.167,495.5 237.5,495.5C 237.5,498.833 237.5,502.167 237.5,505.5C 233.181,506.035 228.848,506.535 224.5,507C 225.712,508.107 225.379,508.607 223.5,508.5C 222.167,508.5 220.833,508.5 219.5,508.5C 219.5,507.5 219.5,506.5 219.5,505.5C 218.022,505.762 216.689,505.429 215.5,504.5C 217.396,503.534 219.396,503.201 221.5,503.5C 221.511,501.453 221.844,499.453 222.5,497.5C 219.652,484.954 218.985,472.287 220.5,459.5C 222.581,454.275 223.248,448.942 222.5,443.5C 220.821,445.104 218.821,445.771 216.5,445.5C 216.5,441.167 216.5,436.833 216.5,432.5C 218.752,433.333 220.919,433.333 223,432.5C 223.024,427.707 224.357,423.374 227,419.5C 225.842,406.22 225.009,392.886 224.5,379.5C 225.5,379.5 226.5,379.5 227.5,379.5C 227.5,378.167 227.5,376.833 227.5,375.5C 228.833,375.5 230.167,375.5 231.5,375.5C 231.334,367.826 231.5,360.159 232,352.5C 234.034,351.138 236.201,350.138 238.5,349.5C 238.5,342.167 238.5,334.833 238.5,327.5C 236.167,327.5 233.833,327.5 231.5,327.5C 231.5,325.5 231.5,323.5 231.5,321.5C 232.833,321.5 234.167,321.5 235.5,321.5C 235.5,319.5 235.5,317.5 235.5,315.5C 236.5,315.5 237.5,315.5 238.5,315.5C 238.612,308.82 238.946,302.153 239.5,295.5C 238.167,295.5 236.833,295.5 235.5,295.5C 235.124,292.293 236.124,289.627 238.5,287.5C 239.333,271.844 239.833,256.177 240,240.5C 242.333,239.833 244.667,239.167 247,238.5C 247.499,234.848 247.665,231.182 247.5,227.5C 239.5,226.833 239.5,226.167 247.5,225.5C 247.5,216.833 247.5,208.167 247.5,199.5C 248.833,199.5 250.167,199.5 251.5,199.5C 251.169,190.808 251.502,182.141 252.5,173.5C 255.115,161.199 258.115,149.199 261.5,137.5C 261.192,136.692 260.692,136.025 260,135.5C 259.8,131.247 259.3,127.08 258.5,123C 258.957,122.586 259.291,122.086 259.5,121.5C 257.847,118.194 256.18,114.861 254.5,111.5C 255.193,110.482 255.859,109.482 256.5,108.5 Z"/></g>
<g><path style="opacity:1" fill="#7437ed" d="M 224.5,108.5 C 224.5,108.167 224.5,107.833 224.5,107.5C 242.833,107.5 261.167,107.5 279.5,107.5C 294.842,107.523 310.175,107.856 325.5,108.5C 328.245,109.168 330.745,110.501 333,112.5C 333.497,114.81 333.663,117.143 333.5,119.5C 330.312,119.618 327.312,120.451 324.5,122C 308.68,122.913 293.013,123.746 277.5,124.5C 277.5,125.167 277.5,125.833 277.5,126.5C 276.833,126.5 276.5,126.833 276.5,127.5C 276.167,127.5 275.833,127.5 275.5,127.5C 277.122,123.722 276.122,120.722 272.5,118.5C 271.743,115.868 271.41,113.368 271.5,111C 276.657,109.717 281.99,109.05 287.5,109C 277.172,108.5 266.839,108.334 256.5,108.5C 248.5,108.5 240.5,108.5 232.5,108.5C 229.833,108.5 227.167,108.5 224.5,108.5 Z"/></g>
<g><path style="opacity:1" fill="#6444ea" d="M 325.5,108.5 C 336.172,108.333 346.839,108.5 357.5,109C 356,109.833 354.833,111 354,112.5C 353.667,116.5 353.333,120.5 353,124.5C 352.292,125.381 351.458,126.047 350.5,126.5C 348.565,125.85 346.565,125.517 344.5,125.5C 322.34,124.503 300.006,124.169 277.5,124.5C 293.013,123.746 308.68,122.913 324.5,122C 327.312,120.451 330.312,119.618 333.5,119.5C 333.663,117.143 333.497,114.81 333,112.5C 330.745,110.501 328.245,109.168 325.5,108.5 Z"/></g>
<g><path style="opacity:1" fill="#5353ef" d="M 383.5,111.5 C 385.797,113.623 387.13,116.29 387.5,119.5C 388.833,119.5 390.167,119.5 391.5,119.5C 391.5,122.167 391.5,124.833 391.5,127.5C 389.508,127.328 387.842,127.995 386.5,129.5C 384.533,150.093 383.2,170.76 382.5,191.5C 380.124,193.627 379.124,196.293 379.5,199.5C 380.833,199.5 382.167,199.5 383.5,199.5C 383.128,202.617 383.128,205.617 383.5,208.5C 382.311,209.429 380.978,209.762 379.5,209.5C 379.666,219.172 379.5,228.839 379,238.5C 376.094,239.063 373.594,240.396 371.5,242.5C 373.149,243.148 374.482,244.148 375.5,245.5C 373.441,246.951 372.441,248.951 372.5,251.5C 373.5,251.5 374.5,251.5 375.5,251.5C 375.5,253.5 375.5,255.5 375.5,257.5C 367.5,258.167 367.5,258.833 375.5,259.5C 375.5,260.833 375.5,262.167 375.5,263.5C 374.167,263.5 372.833,263.5 371.5,263.5C 369.945,279.469 368.612,295.469 367.5,311.5C 368.833,311.5 370.167,311.5 371.5,311.5C 369.863,319.395 368.863,327.395 368.5,335.5C 368.647,339.351 368.98,343.184 369.5,347C 367.395,359.673 365.728,372.506 364.5,385.5C 363.697,388.244 362.697,390.911 361.5,393.5C 364.462,396.388 363.795,397.721 359.5,397.5C 359.843,399.483 359.176,400.817 357.5,401.5C 355.992,400.254 354.492,398.92 353,397.5C 352.5,340.168 352.333,282.834 352.5,225.5C 353.332,245.663 353.832,265.996 354,286.5C 355.442,281.691 355.942,276.691 355.5,271.5C 356.833,271.5 358.167,271.5 359.5,271.5C 359.5,263.5 359.5,255.5 359.5,247.5C 361.5,247.5 363.5,247.5 365.5,247.5C 366.27,234.252 367.27,220.919 368.5,207.5C 369.833,202.167 371.167,196.833 372.5,191.5C 373.833,190.833 374.833,189.833 375.5,188.5C 373.34,186.907 373.173,185.24 375,183.5C 375.499,178.177 375.666,172.844 375.5,167.5C 374.167,167.5 372.833,167.5 371.5,167.5C 371.5,164.833 371.5,162.167 371.5,159.5C 372.833,159.5 374.167,159.5 375.5,159.5C 375.5,156.833 375.5,154.167 375.5,151.5C 376.833,151.5 378.167,151.5 379.5,151.5C 380.979,140.86 382.312,130.193 383.5,119.5C 382.167,119.5 380.833,119.5 379.5,119.5C 379.5,118.167 379.5,116.833 379.5,115.5C 380.833,115.5 382.167,115.5 383.5,115.5C 383.5,114.167 383.5,112.833 383.5,111.5 Z"/></g>
<g><path style="opacity:1" fill="#4162ef" d="M 427.5,108.5 C 439.171,108.333 450.838,108.5 462.5,109C 458.233,109.189 454.233,110.023 450.5,111.5C 449.883,111.389 449.383,111.056 449,110.5C 445.849,112.646 444.015,115.646 443.5,119.5C 444.5,119.5 445.5,119.5 446.5,119.5C 446.5,123.5 446.5,127.5 446.5,131.5C 445.5,131.5 444.5,131.5 443.5,131.5C 443.5,132.833 443.5,134.167 443.5,135.5C 440.5,135.167 439.167,136.5 439.5,139.5C 440.833,139.5 442.167,139.5 443.5,139.5C 443.579,141.666 444.246,143.666 445.5,145.5C 443.881,148.642 443.215,151.975 443.5,155.5C 442.167,155.5 440.833,155.5 439.5,155.5C 439.5,161.5 439.5,167.5 439.5,173.5C 436.671,173.325 435.004,174.658 434.5,177.5C 433.914,177.291 433.414,176.957 433,176.5C 433.438,197.203 433.438,217.87 433,238.5C 431.521,246.855 429.687,255.188 427.5,263.5C 424.938,264.371 422.272,264.371 419.5,263.5C 419.449,265.57 420.115,267.403 421.5,269C 421.355,269.772 421.022,270.439 420.5,271C 418.899,271.273 417.399,271.773 416,272.5C 415.421,276.203 415.588,279.869 416.5,283.5C 417.5,283.5 418.5,283.5 419.5,283.5C 418.833,287.5 418.167,291.5 417.5,295.5C 416.178,295.33 415.011,295.663 414,296.5C 413.053,301.03 413.553,305.364 415.5,309.5C 413.976,312.802 413.309,316.302 413.5,320C 413.96,328.689 414.626,337.355 415.5,346C 415.355,347.226 415.022,348.393 414.5,349.5C 415.663,354.806 416.663,360.14 417.5,365.5C 414.894,369.196 414.227,373.196 415.5,377.5C 414.349,380.465 412.682,383.131 410.5,385.5C 409.534,387.396 409.201,389.396 409.5,391.5C 410.833,391.5 412.167,391.5 413.5,391.5C 413.518,398.592 410.184,401.258 403.5,399.5C 403.449,401.57 404.115,403.403 405.5,405C 404.167,406.667 402.833,408.333 401.5,410C 402.833,413.667 404.167,417.333 405.5,421C 405.138,422.225 404.638,423.391 404,424.5C 403.601,434.844 403.101,445.177 402.5,455.5C 403.5,455.5 404.5,455.5 405.5,455.5C 404.893,458.715 403.726,461.715 402,464.5C 401.503,466.81 401.337,469.143 401.5,471.5C 403.346,471.222 404.68,471.889 405.5,473.5C 403.956,474.747 402.456,476.08 401,477.5C 398.909,485.478 398.575,493.478 400,501.5C 401.388,502.736 402.554,504.069 403.5,505.5C 402.486,506.674 401.153,507.34 399.5,507.5C 398.094,507.973 397.427,508.973 397.5,510.5C 387.518,511.257 377.518,511.59 367.5,511.5C 368.64,510.199 369.973,509.032 371.5,508C 376.574,507.574 381.574,506.741 386.5,505.5C 385.541,502.812 384.041,500.479 382,498.5C 381.791,492.64 380.958,486.974 379.5,481.5C 380.822,481.67 381.989,481.337 383,480.5C 383.5,464.17 383.667,447.837 383.5,431.5C 385.467,431.739 387.301,431.406 389,430.5C 389.732,427.471 390.565,424.471 391.5,421.5C 390.489,419.653 389.489,417.82 388.5,416C 386.899,415.727 385.399,415.227 384,414.5C 383.668,409.81 384.002,405.143 385,400.5C 387.041,401.423 389.208,401.756 391.5,401.5C 391.5,400.167 391.5,398.833 391.5,397.5C 392.833,397.5 394.167,397.5 395.5,397.5C 394.918,382.397 395.751,367.397 398,352.5C 398.689,351.643 399.522,350.977 400.5,350.5C 401.494,345.544 401.827,340.544 401.5,335.5C 400.167,335.5 398.833,335.5 397.5,335.5C 397.5,332.833 397.5,330.167 397.5,327.5C 398.833,327.5 400.167,327.5 401.5,327.5C 401.334,322.489 401.501,317.489 402,312.5C 403.757,311.881 404.924,310.714 405.5,309C 404.167,305.333 402.833,301.667 401.5,298C 402.076,296.286 403.243,295.119 405,294.5C 405.167,292.667 405.333,290.833 405.5,289C 405.003,285.759 404.336,282.592 403.5,279.5C 404.833,279.5 406.167,279.5 407.5,279.5C 407.5,278.167 407.5,276.833 407.5,275.5C 405.167,275.5 402.833,275.5 400.5,275.5C 400.351,274.448 400.517,273.448 401,272.5C 403.041,273.423 405.208,273.756 407.5,273.5C 407.5,272.167 407.5,270.833 407.5,269.5C 408.833,269.5 410.167,269.5 411.5,269.5C 411.896,265.366 412.896,261.366 414.5,257.5C 413.534,243.53 413.201,229.53 413.5,215.5C 414.833,215.5 416.167,215.5 417.5,215.5C 417.551,213.43 416.885,211.597 415.5,210C 416.15,200.294 417.483,190.794 419.5,181.5C 419.333,178.167 419.167,174.833 419,171.5C 416.635,167.889 415.802,164.056 416.5,160C 420.549,159.887 424.215,158.72 427.5,156.5C 426.311,155.571 424.978,155.238 423.5,155.5C 423.5,152.833 423.5,150.167 423.5,147.5C 421.167,147.5 418.833,147.5 416.5,147.5C 416.5,146.5 416.5,145.5 416.5,144.5C 420.179,144.276 423.846,143.942 427.5,143.5C 427.549,138.635 428.549,133.969 430.5,129.5C 429.477,126.135 428.477,122.802 427.5,119.5C 426.178,119.67 425.011,119.337 424,118.5C 423.186,116.098 423.353,113.765 424.5,111.5C 425.167,112.833 425.833,114.167 426.5,115.5C 427.248,113.668 428.248,112.001 429.5,110.5C 428.757,109.818 428.091,109.151 427.5,108.5 Z"/></g>
<g><path style="opacity:1" fill="#366df0" d="M 423.5,107.5 C 437.01,107.171 450.344,107.504 463.5,108.5C 464.958,110.011 466.791,111.011 469,111.5C 470.143,115.788 472.31,119.455 475.5,122.5C 474.306,124.623 473.64,126.957 473.5,129.5C 472.843,134.914 473.51,140.248 475.5,145.5C 475.709,148.454 475.042,151.121 473.5,153.5C 473.808,154.308 474.308,154.975 475,155.5C 475.499,159.486 475.666,163.486 475.5,167.5C 474.167,167.5 472.833,167.5 471.5,167.5C 471.5,172.833 471.5,178.167 471.5,183.5C 470.178,183.33 469.011,183.663 468,184.5C 467.667,196.833 467.333,209.167 467,221.5C 466,222.5 465,223.5 464,224.5C 463.739,228.706 463.239,232.873 462.5,237C 462.816,248.141 462.816,259.308 462.5,270.5C 460.194,270.993 457.861,271.326 455.5,271.5C 455.395,275.548 455.728,279.548 456.5,283.5C 457.5,283.5 458.5,283.5 459.5,283.5C 459.5,287.5 459.5,291.5 459.5,295.5C 458.167,295.5 456.833,295.5 455.5,295.5C 455.5,298.167 455.5,300.833 455.5,303.5C 454.167,303.5 452.833,303.5 451.5,303.5C 451.5,318.833 451.5,334.167 451.5,349.5C 450.5,349.5 449.5,349.5 448.5,349.5C 447.589,358.126 447.255,366.792 447.5,375.5C 449.346,375.222 450.68,375.889 451.5,377.5C 447.295,382.636 445.629,388.636 446.5,395.5C 445.5,395.5 444.5,395.5 443.5,395.5C 443.5,404.833 443.5,414.167 443.5,423.5C 442.167,423.5 440.833,423.5 439.5,423.5C 439.858,426.898 439.192,430.065 437.5,433C 440.175,437.165 439.675,440.998 436,444.5C 435.5,453.494 435.334,462.494 435.5,471.5C 434.167,471.5 432.833,471.5 431.5,471.5C 431.596,482.935 431.596,494.268 431.5,505.5C 429.883,506.642 428.05,507.309 426,507.5C 422.011,507.966 418.011,508.299 414,508.5C 408.913,508.141 404.08,507.807 399.5,507.5C 401.153,507.34 402.486,506.674 403.5,505.5C 406.898,505.82 410.232,505.487 413.5,504.5C 411.5,503.833 409.5,503.167 407.5,502.5C 410.086,501.52 412.753,501.187 415.5,501.5C 415.897,495.29 415.231,489.29 413.5,483.5C 414.811,479.593 415.478,475.593 415.5,471.5C 416.833,471.5 418.167,471.5 419.5,471.5C 419.5,469.167 419.5,466.833 419.5,464.5C 416.05,464.427 414.717,462.594 415.5,459C 417.245,449.937 417.912,440.77 417.5,431.5C 419.5,431.5 421.5,431.5 423.5,431.5C 423.5,427.5 423.5,423.5 423.5,419.5C 422.167,419.5 420.833,419.5 419.5,419.5C 419.762,420.978 419.429,422.311 418.5,423.5C 417.167,420.833 417.167,418.167 418.5,415.5C 419.842,417.005 421.508,417.672 423.5,417.5C 423.5,412.167 423.5,406.833 423.5,401.5C 424.833,401.5 426.167,401.5 427.5,401.5C 427.169,394.137 427.503,386.803 428.5,379.5C 430.006,375.134 431.006,370.634 431.5,366C 431.055,364.553 430.388,363.22 429.5,362C 430.032,359.98 431.365,359.147 433.5,359.5C 433.721,346.959 433.054,334.625 431.5,322.5C 434.846,308.742 436.346,294.742 436,280.5C 437.699,279.594 439.533,279.261 441.5,279.5C 441.124,276.293 442.124,273.627 444.5,271.5C 446.413,247.56 447.747,223.56 448.5,199.5C 451.065,194.927 452.232,189.927 452,184.5C 453.011,183.663 454.178,183.33 455.5,183.5C 455.5,182.167 455.5,180.833 455.5,179.5C 454.178,179.67 453.011,179.337 452,178.5C 451.501,174.848 451.335,171.182 451.5,167.5C 452.833,167.5 454.167,167.5 455.5,167.5C 455.5,150.167 455.5,132.833 455.5,115.5C 453.5,115.5 451.5,115.5 449.5,115.5C 449.433,114.041 449.766,112.708 450.5,111.5C 454.233,110.023 458.233,109.189 462.5,109C 450.838,108.5 439.171,108.333 427.5,108.5C 425.901,108.768 424.568,108.434 423.5,107.5 Z"/></g>
<g><path style="opacity:1" fill="#921ff0" d="M 220.5,111.5 C 220.077,112.265 219.743,113.098 219.5,114C 220.885,115.597 221.551,117.43 221.5,119.5C 222.833,119.5 224.167,119.5 225.5,119.5C 225.5,130.167 225.5,140.833 225.5,151.5C 224.167,151.5 222.833,151.5 221.5,151.5C 221.579,153.666 222.246,155.666 223.5,157.5C 222.236,161.521 222.236,165.521 223.5,169.5C 222.349,172.465 220.682,175.131 218.5,177.5C 217.534,179.396 217.201,181.396 217.5,183.5C 218.833,183.5 220.167,183.5 221.5,183.5C 221.697,188.974 221.031,194.308 219.5,199.5C 218.178,199.33 217.011,199.663 216,200.5C 215.5,210.828 215.334,221.161 215.5,231.5C 214.167,231.5 212.833,231.5 211.5,231.5C 209.781,239.368 209.114,247.368 209.5,255.5C 204.676,255.888 202.676,258.555 203.5,263.5C 206.167,263.5 208.833,263.5 211.5,263.5C 211.5,265.833 211.5,268.167 211.5,270.5C 209.856,270.286 208.356,270.62 207,271.5C 206.831,278.191 206.331,284.858 205.5,291.5C 203.889,292.32 203.222,293.654 203.5,295.5C 202.5,295.5 201.5,295.5 200.5,295.5C 200.485,300.019 198.152,302.519 193.5,303C 194.308,303.308 194.975,303.808 195.5,304.5C 193.504,315.977 192.504,327.644 192.5,339.5C 194.833,339.5 197.167,339.5 199.5,339.5C 199.5,340.833 199.5,342.167 199.5,343.5C 198.167,343.5 196.833,343.5 195.5,343.5C 195.5,344.833 195.5,346.167 195.5,347.5C 194.5,347.5 193.5,347.5 192.5,347.5C 192.5,348.5 192.5,349.5 192.5,350.5C 194.861,350.674 197.194,351.007 199.5,351.5C 200.167,354.167 200.833,356.833 201.5,359.5C 200.178,359.33 199.011,359.663 198,360.5C 197.505,362.473 197.338,364.473 197.5,366.5C 195.418,366.472 193.584,367.139 192,368.5C 192.238,372.109 192.405,375.775 192.5,379.5C 193.5,379.5 194.5,379.5 195.5,379.5C 194.088,388.666 193.422,397.999 193.5,407.5C 192.178,407.33 191.011,407.663 190,408.5C 188.867,411.751 188.034,415.085 187.5,418.5C 189.287,430.763 189.954,443.096 189.5,455.5C 187.533,455.261 185.699,455.594 184,456.5C 183.449,464.216 182.615,471.882 181.5,479.5C 182.833,479.5 184.167,479.5 185.5,479.5C 185.5,482.167 185.5,484.833 185.5,487.5C 184.167,487.5 182.833,487.5 181.5,487.5C 181.84,490.144 181.173,492.477 179.5,494.5C 180.833,495.167 182.167,495.833 183.5,496.5C 181.305,497.769 179.139,497.769 177,496.5C 176.982,498.797 177.149,501.131 177.5,503.5C 176.25,503.423 175.417,502.756 175,501.5C 172.908,495.4 173.075,489.4 175.5,483.5C 175.423,481.701 174.923,480.034 174,478.5C 173.668,469.355 173.501,460.355 173.5,451.5C 175.157,439.909 175.99,428.242 176,416.5C 177.908,415.182 178.742,413.348 178.5,411C 178.217,399.134 178.217,387.301 178.5,375.5C 180.144,375.714 181.644,375.38 183,374.5C 183.374,367.446 184.207,360.446 185.5,353.5C 183.74,348.181 183.073,342.847 183.5,337.5C 184.833,337.5 186.167,337.5 187.5,337.5C 187.453,324.786 188.119,312.119 189.5,299.5C 187.654,299.778 186.32,299.111 185.5,297.5C 186.32,295.889 187.654,295.222 189.5,295.5C 189.337,293.143 189.503,290.81 190,288.5C 191.011,287.663 192.178,287.33 193.5,287.5C 193.5,284.833 193.5,282.167 193.5,279.5C 190.512,279.845 189.179,278.512 189.5,275.5C 189.179,272.488 190.512,271.155 193.5,271.5C 192.733,267.695 192.067,263.861 191.5,260C 191.444,257.462 192.444,255.628 194.5,254.5C 195.167,248.167 195.833,241.833 196.5,235.5C 199.495,231.706 200.162,227.539 198.5,223C 196.527,222.505 194.527,222.338 192.5,222.5C 192.5,221.5 192.5,220.5 192.5,219.5C 193.5,219.5 194.5,219.5 195.5,219.5C 195.5,218.167 195.5,216.833 195.5,215.5C 196.833,215.5 198.167,215.5 199.5,215.5C 199.334,205.161 199.5,194.828 200,184.5C 201.011,183.663 202.178,183.33 203.5,183.5C 203.5,176.167 203.5,168.833 203.5,161.5C 204.822,161.67 205.989,161.337 207,160.5C 207.646,149.823 207.48,139.156 206.5,128.5C 206.14,123.837 207.14,119.503 209.5,115.5C 209.081,114.328 208.415,113.328 207.5,112.5C 211.783,111.508 216.116,111.174 220.5,111.5 Z"/></g>
<g><path style="opacity:0.384" fill="#080d27" d="M 463.5,106.5 C 463.5,106.167 463.5,105.833 463.5,105.5C 489.898,109.632 507.731,124.299 517,149.5C 518.043,152.757 518.543,156.09 518.5,159.5C 518.167,159.5 517.833,159.5 517.5,159.5C 517.435,156.572 516.768,153.905 515.5,151.5C 507.301,126.561 490.301,111.561 464.5,106.5C 464.167,106.5 463.833,106.5 463.5,106.5 Z"/></g>
<g><path style="opacity:1" fill="#6146ad" d="M 277.5,124.5 C 300.006,124.169 322.34,124.503 344.5,125.5C 344.5,125.833 344.5,126.167 344.5,126.5C 322.5,126.5 300.5,126.5 278.5,126.5C 278.167,126.5 277.833,126.5 277.5,126.5C 277.5,125.833 277.5,125.167 277.5,124.5 Z"/></g>
<g><path style="opacity:1" fill="#fbfcfd" d="M 278.5,126.5 C 300.5,126.5 322.5,126.5 344.5,126.5C 345.833,126.833 347.167,127.167 348.5,127.5C 348.5,135.833 348.5,144.167 348.5,152.5C 324.833,152.5 301.167,152.5 277.5,152.5C 277.197,143.749 277.53,135.082 278.5,126.5 Z"/></g>
<g><path style="opacity:1" fill="#2f73f1" d="M 463.5,108.5 C 464.5,108.5 465.5,108.5 466.5,108.5C 472.389,109.765 478.056,111.765 483.5,114.5C 482.833,115.167 482.167,115.833 481.5,116.5C 483.473,117.331 485.473,117.498 487.5,117C 489.362,120.917 492.362,123.417 496.5,124.5C 495.128,126.62 495.795,127.62 498.5,127.5C 498.5,129.167 498.5,130.833 498.5,132.5C 494.93,132.099 492.764,130.099 492,126.5C 491.502,129.482 491.335,132.482 491.5,135.5C 492.833,135.5 494.167,135.5 495.5,135.5C 494.983,140.234 494.983,144.9 495.5,149.5C 495.192,150.308 494.692,150.975 494,151.5C 493.973,158.53 493.139,165.364 491.5,172C 493.489,177.752 493.823,183.585 492.5,189.5C 489.737,191.597 486.737,193.263 483.5,194.5C 484.736,195.357 486.069,196.023 487.5,196.5C 488.386,197.325 488.719,198.325 488.5,199.5C 489.5,199.5 490.5,199.5 491.5,199.5C 491.5,202.167 491.5,204.833 491.5,207.5C 487.846,207.942 484.179,208.276 480.5,208.5C 480.993,210.806 481.326,213.139 481.5,215.5C 483.5,215.5 485.5,215.5 487.5,215.5C 487.5,218.167 487.5,220.833 487.5,223.5C 486.167,223.5 484.833,223.5 483.5,223.5C 484.012,236.949 483.345,250.282 481.5,263.5C 480.167,263.5 478.833,263.5 477.5,263.5C 477.309,274.28 476.643,284.946 475.5,295.5C 472.5,295.167 471.167,296.5 471.5,299.5C 472.833,299.5 474.167,299.5 475.5,299.5C 475.5,302.167 475.5,304.833 475.5,307.5C 474.5,307.5 473.5,307.5 472.5,307.5C 471.955,310.813 471.455,314.146 471,317.5C 470.5,318 470,318.5 469.5,319C 470.938,319.219 472.271,319.719 473.5,320.5C 471.63,325.261 470.963,330.261 471.5,335.5C 470.167,335.5 468.833,335.5 467.5,335.5C 467.832,345.522 467.499,355.522 466.5,365.5C 465.158,367.005 463.492,367.672 461.5,367.5C 461.681,372.959 462.348,378.292 463.5,383.5C 463.614,386.364 463.114,389.03 462,391.5C 461.728,402.225 461.561,412.892 461.5,423.5C 459.5,423.5 457.5,423.5 455.5,423.5C 455.5,436.833 455.5,450.167 455.5,463.5C 454.167,463.5 452.833,463.5 451.5,463.5C 451.666,468.179 451.499,472.845 451,477.5C 449.437,478.725 448.27,480.225 447.5,482C 449.756,487.7 451.09,493.533 451.5,499.5C 452.978,499.238 454.311,499.571 455.5,500.5C 453.604,501.466 451.604,501.799 449.5,501.5C 449.5,503.167 449.5,504.833 449.5,506.5C 448.167,506.5 446.833,506.5 445.5,506.5C 445.719,507.675 445.386,508.675 444.5,509.5C 439.889,508.39 435.222,508.223 430.5,509C 431.056,509.383 431.389,509.883 431.5,510.5C 420.167,510.5 408.833,510.5 397.5,510.5C 397.427,508.973 398.094,507.973 399.5,507.5C 404.08,507.807 408.913,508.141 414,508.5C 418.011,508.299 422.011,507.966 426,507.5C 428.05,507.309 429.883,506.642 431.5,505.5C 431.596,494.268 431.596,482.935 431.5,471.5C 432.833,471.5 434.167,471.5 435.5,471.5C 435.334,462.494 435.5,453.494 436,444.5C 439.675,440.998 440.175,437.165 437.5,433C 439.192,430.065 439.858,426.898 439.5,423.5C 440.833,423.5 442.167,423.5 443.5,423.5C 443.5,414.167 443.5,404.833 443.5,395.5C 444.5,395.5 445.5,395.5 446.5,395.5C 445.629,388.636 447.295,382.636 451.5,377.5C 450.68,375.889 449.346,375.222 447.5,375.5C 447.255,366.792 447.589,358.126 448.5,349.5C 449.5,349.5 450.5,349.5 451.5,349.5C 451.5,334.167 451.5,318.833 451.5,303.5C 452.833,303.5 454.167,303.5 455.5,303.5C 455.5,300.833 455.5,298.167 455.5,295.5C 456.833,295.5 458.167,295.5 459.5,295.5C 459.5,291.5 459.5,287.5 459.5,283.5C 458.5,283.5 457.5,283.5 456.5,283.5C 455.728,279.548 455.395,275.548 455.5,271.5C 457.861,271.326 460.194,270.993 462.5,270.5C 462.816,259.308 462.816,248.141 462.5,237C 463.239,232.873 463.739,228.706 464,224.5C 465,223.5 466,222.5 467,221.5C 467.333,209.167 467.667,196.833 468,184.5C 469.011,183.663 470.178,183.33 471.5,183.5C 471.5,178.167 471.5,172.833 471.5,167.5C 472.833,167.5 474.167,167.5 475.5,167.5C 475.666,163.486 475.499,159.486 475,155.5C 474.308,154.975 473.808,154.308 473.5,153.5C 475.042,151.121 475.709,148.454 475.5,145.5C 473.51,140.248 472.843,134.914 473.5,129.5C 473.64,126.957 474.306,124.623 475.5,122.5C 472.31,119.455 470.143,115.788 469,111.5C 466.791,111.011 464.958,110.011 463.5,108.5 Z"/></g>
<g><path style="opacity:0.98" fill="#a41cd9" d="M 134.5,119.5 C 134.068,120.71 133.401,121.71 132.5,122.5C 128.304,125.703 126.304,130.037 126.5,135.5C 124.031,134.933 121.698,134.933 119.5,135.5C 121.811,132.337 123.978,129.003 126,125.5C 128.629,123.112 131.462,121.112 134.5,119.5 Z"/></g>
<g><path style="opacity:0.584" fill="#270642" d="M 148.5,109.5 C 143.576,112.416 138.91,115.749 134.5,119.5C 131.462,121.112 128.629,123.112 126,125.5C 123.978,129.003 121.811,132.337 119.5,135.5C 117.983,138.035 116.65,140.702 115.5,143.5C 114.167,145.5 112.833,147.5 111.5,149.5C 111.5,148.833 111.5,148.167 111.5,147.5C 117.803,128.865 130.136,116.198 148.5,109.5 Z"/></g>
<g><path style="opacity:1" fill="#b20df4" d="M 132.5,122.5 C 135.379,125.291 138.712,127.624 142.5,129.5C 144.012,133.201 145.012,137.034 145.5,141C 143.988,152.342 142.988,163.842 142.5,175.5C 141.522,175.977 140.689,176.643 140,177.5C 139.667,194.5 139.333,211.5 139,228.5C 132.106,228.977 129.606,232.644 131.5,239.5C 134.167,239.833 136.833,240.167 139.5,240.5C 139.5,241.5 139.5,242.5 139.5,243.5C 138.5,243.5 137.5,243.5 136.5,243.5C 135.562,255.462 135.228,267.462 135.5,279.5C 134.167,279.5 132.833,279.5 131.5,279.5C 131.5,282.167 131.5,284.833 131.5,287.5C 132.5,287.5 133.5,287.5 134.5,287.5C 134.5,292.5 134.5,297.5 134.5,302.5C 129.808,301.499 127.475,303.332 127.5,308C 127.614,311.289 128.281,314.456 129.5,317.5C 128.045,319.22 127.212,321.22 127,323.5C 126.5,335.503 126,347.503 125.5,359.5C 120.255,360.75 120.255,362.417 125.5,364.5C 123.995,365.842 123.328,367.508 123.5,369.5C 122.167,369.5 120.833,369.5 119.5,369.5C 119.5,376.833 119.5,384.167 119.5,391.5C 118.167,391.5 116.833,391.5 115.5,391.5C 115.5,398.833 115.5,406.167 115.5,413.5C 114.5,413.5 113.5,413.5 112.5,413.5C 112.829,398.657 112.496,383.99 111.5,369.5C 111.333,300.166 111.5,230.833 112,161.5C 114.041,155.736 115.208,149.736 115.5,143.5C 116.65,140.702 117.983,138.035 119.5,135.5C 121.698,134.933 124.031,134.933 126.5,135.5C 126.304,130.037 128.304,125.703 132.5,122.5 Z"/></g>
<g><path style="opacity:1" fill="#2979f2" d="M 498.5,127.5 C 499.095,130.096 500.762,131.763 503.5,132.5C 504.846,136.195 506.179,139.861 507.5,143.5C 508.833,143.5 510.167,143.5 511.5,143.5C 511.74,146.579 511.407,149.579 510.5,152.5C 511.375,154.773 513.042,155.773 515.5,155.5C 515.5,156.833 515.5,158.167 515.5,159.5C 515.813,162.247 515.48,164.914 514.5,167.5C 513.575,166.359 512.741,166.359 512,167.5C 511.641,172.886 512.141,178.219 513.5,183.5C 513.493,186.592 512.993,189.592 512,192.5C 511.424,189.876 510.09,189.209 508,190.5C 506.542,193.372 505.375,196.372 504.5,199.5C 502.113,217.508 500.279,235.508 499,253.5C 498,254.5 497,255.5 496,256.5C 495.829,261.533 495.329,266.533 494.5,271.5C 492.016,273.091 491.016,275.425 491.5,278.5C 492.046,281.566 492.712,284.566 493.5,287.5C 491.533,287.261 489.699,287.594 488,288.5C 487.503,290.81 487.337,293.143 487.5,295.5C 489.833,295.5 492.167,295.5 494.5,295.5C 494.666,299.514 494.499,303.514 494,307.5C 491.636,311.894 490.136,316.56 489.5,321.5C 489.952,324.877 490.618,328.211 491.5,331.5C 491.495,334.229 490.329,336.229 488,337.5C 487.333,342.167 487.333,346.833 488,351.5C 489.205,352.071 490.372,352.738 491.5,353.5C 489.914,355.173 489.247,357.173 489.5,359.5C 487.167,359.5 484.833,359.5 482.5,359.5C 483.084,362.983 482.251,365.983 480,368.5C 478.974,382.906 479.474,397.239 481.5,411.5C 478.982,423.36 477.982,435.36 478.5,447.5C 477.5,447.5 476.5,447.5 475.5,447.5C 475.5,448.833 475.5,450.167 475.5,451.5C 474.5,451.5 473.5,451.5 472.5,451.5C 472.67,452.822 472.337,453.989 471.5,455C 472.793,455.49 474.127,455.657 475.5,455.5C 475.5,457.5 475.5,459.5 475.5,461.5C 474.022,461.238 472.689,461.571 471.5,462.5C 473.26,465.212 473.927,468.212 473.5,471.5C 472.178,471.33 471.011,471.663 470,472.5C 469.667,477.167 469.333,481.833 469,486.5C 465.5,488.798 464,492.131 464.5,496.5C 464.833,498.167 465.167,499.833 465.5,501.5C 468.109,502.23 470.776,502.73 473.5,503C 474.357,503.689 475.023,504.522 475.5,505.5C 472.943,505.782 470.277,505.949 467.5,506C 466.315,507.353 464.981,508.52 463.5,509.5C 452.854,510.499 442.187,510.832 431.5,510.5C 431.389,509.883 431.056,509.383 430.5,509C 435.222,508.223 439.889,508.39 444.5,509.5C 445.386,508.675 445.719,507.675 445.5,506.5C 446.833,506.5 448.167,506.5 449.5,506.5C 449.5,504.833 449.5,503.167 449.5,501.5C 451.604,501.799 453.604,501.466 455.5,500.5C 454.311,499.571 452.978,499.238 451.5,499.5C 451.09,493.533 449.756,487.7 447.5,482C 448.27,480.225 449.437,478.725 451,477.5C 451.499,472.845 451.666,468.179 451.5,463.5C 452.833,463.5 454.167,463.5 455.5,463.5C 455.5,450.167 455.5,436.833 455.5,423.5C 457.5,423.5 459.5,423.5 461.5,423.5C 461.561,412.892 461.728,402.225 462,391.5C 463.114,389.03 463.614,386.364 463.5,383.5C 462.348,378.292 461.681,372.959 461.5,367.5C 463.492,367.672 465.158,367.005 466.5,365.5C 467.499,355.522 467.832,345.522 467.5,335.5C 468.833,335.5 470.167,335.5 471.5,335.5C 470.963,330.261 471.63,325.261 473.5,320.5C 472.271,319.719 470.938,319.219 469.5,319C 470,318.5 470.5,318 471,317.5C 471.455,314.146 471.955,310.813 472.5,307.5C 473.5,307.5 474.5,307.5 475.5,307.5C 475.5,304.833 475.5,302.167 475.5,299.5C 474.167,299.5 472.833,299.5 471.5,299.5C 471.167,296.5 472.5,295.167 475.5,295.5C 476.643,284.946 477.309,274.28 477.5,263.5C 478.833,263.5 480.167,263.5 481.5,263.5C 483.345,250.282 484.012,236.949 483.5,223.5C 484.833,223.5 486.167,223.5 487.5,223.5C 487.5,220.833 487.5,218.167 487.5,215.5C 485.5,215.5 483.5,215.5 481.5,215.5C 481.326,213.139 480.993,210.806 480.5,208.5C 484.179,208.276 487.846,207.942 491.5,207.5C 491.5,204.833 491.5,202.167 491.5,199.5C 490.5,199.5 489.5,199.5 488.5,199.5C 488.719,198.325 488.386,197.325 487.5,196.5C 486.069,196.023 484.736,195.357 483.5,194.5C 486.737,193.263 489.737,191.597 492.5,189.5C 493.823,183.585 493.489,177.752 491.5,172C 493.139,165.364 493.973,158.53 494,151.5C 494.692,150.975 495.192,150.308 495.5,149.5C 494.983,144.9 494.983,140.234 495.5,135.5C 494.167,135.5 492.833,135.5 491.5,135.5C 491.335,132.482 491.502,129.482 492,126.5C 492.764,130.099 494.93,132.099 498.5,132.5C 498.5,130.833 498.5,129.167 498.5,127.5 Z"/></g>
<g><path style="opacity:0.992" fill="#3675d9" d="M 464.5,106.5 C 490.301,111.561 507.301,126.561 515.5,151.5C 515.5,152.833 515.5,154.167 515.5,155.5C 513.042,155.773 511.375,154.773 510.5,152.5C 511.407,149.579 511.74,146.579 511.5,143.5C 510.167,143.5 508.833,143.5 507.5,143.5C 506.179,139.861 504.846,136.195 503.5,132.5C 500.762,131.763 499.095,130.096 498.5,127.5C 495.795,127.62 495.128,126.62 496.5,124.5C 492.362,123.417 489.362,120.917 487.5,117C 485.473,117.498 483.473,117.331 481.5,116.5C 482.167,115.833 482.833,115.167 483.5,114.5C 478.056,111.765 472.389,109.765 466.5,108.5C 465.833,107.833 465.167,107.167 464.5,106.5 Z"/></g>
<g><path style="opacity:1" fill="#7360a4" d="M 277.5,126.5 C 277.833,126.5 278.167,126.5 278.5,126.5C 277.53,135.082 277.197,143.749 277.5,152.5C 276.507,144.35 276.174,136.017 276.5,127.5C 276.5,126.833 276.833,126.5 277.5,126.5 Z"/></g>
<g><path style="opacity:1" fill="#040608" d="M 277.5,152.5 C 301.167,152.5 324.833,152.5 348.5,152.5C 348.5,155.167 348.5,157.833 348.5,160.5C 324.833,160.5 301.167,160.5 277.5,160.5C 277.5,157.833 277.5,155.167 277.5,152.5 Z"/></g>
<g><path style="opacity:1" fill="#fcfcfc" d="M 277.5,161.5 C 300.833,161.5 324.167,161.5 347.5,161.5C 347.5,245.5 347.5,329.5 347.5,413.5C 336.608,410.092 325.941,406.092 315.5,401.5C 302.6,383.331 295.6,362.998 294.5,340.5C 292.568,339.48 290.568,339.313 288.5,340C 287.819,363.47 287.152,386.97 286.5,410.5C 283.673,411.108 281.007,412.108 278.5,413.5C 277.501,329.668 277.167,245.668 277.5,161.5 Z"/></g>
<g><path style="opacity:1" fill="#040606" d="M 289.5,168.5 C 291.722,168.178 293.556,168.845 295,170.5C 295.833,190.175 295.666,209.842 294.5,229.5C 292.5,230.833 290.5,230.833 288.5,229.5C 287.334,209.842 287.167,190.175 288,170.5C 288.717,169.956 289.217,169.289 289.5,168.5 Z"/></g>
<g><path style="opacity:1" fill="#4f55ed" d="M 391.5,108.5 C 396.167,108.5 400.833,108.5 405.5,108.5C 404.34,109.265 403.34,110.265 402.5,111.5C 403.246,112.736 403.579,114.07 403.5,115.5C 401.801,115.34 400.134,115.506 398.5,116C 399.153,120.586 399.487,125.253 399.5,130C 398.501,140.486 397.834,150.986 397.5,161.5C 395.396,161.201 393.396,161.534 391.5,162.5C 392.689,163.429 394.022,163.762 395.5,163.5C 395.5,164.833 395.5,166.167 395.5,167.5C 394.167,167.5 392.833,167.5 391.5,167.5C 391.5,178.167 391.5,188.833 391.5,199.5C 390.167,199.5 388.833,199.5 387.5,199.5C 387.5,200.833 387.5,202.167 387.5,203.5C 386.5,203.5 385.5,203.5 384.5,203.5C 384.5,204.5 384.5,205.5 384.5,206.5C 386.861,206.674 389.194,207.007 391.5,207.5C 391.5,210.167 391.5,212.833 391.5,215.5C 390.178,215.33 389.011,215.663 388,216.5C 387.667,223.833 387.333,231.167 387,238.5C 385.989,239.337 384.822,239.67 383.5,239.5C 383.303,244.974 383.969,250.308 385.5,255.5C 384.167,255.5 382.833,255.5 381.5,255.5C 381.522,259.593 382.189,263.593 383.5,267.5C 382.189,271.407 381.522,275.407 381.5,279.5C 379.833,279.5 378.167,279.5 376.5,279.5C 376.5,280.833 376.5,282.167 376.5,283.5C 378.604,283.201 380.604,283.534 382.5,284.5C 380.414,286.003 378.248,287.336 376,288.5C 375.5,296.159 375.334,303.826 375.5,311.5C 374.167,311.5 372.833,311.5 371.5,311.5C 370.167,311.5 368.833,311.5 367.5,311.5C 368.612,295.469 369.945,279.469 371.5,263.5C 372.833,263.5 374.167,263.5 375.5,263.5C 375.5,262.167 375.5,260.833 375.5,259.5C 367.5,258.833 367.5,258.167 375.5,257.5C 375.5,255.5 375.5,253.5 375.5,251.5C 374.5,251.5 373.5,251.5 372.5,251.5C 372.441,248.951 373.441,246.951 375.5,245.5C 374.482,244.148 373.149,243.148 371.5,242.5C 373.594,240.396 376.094,239.063 379,238.5C 379.5,228.839 379.666,219.172 379.5,209.5C 380.978,209.762 382.311,209.429 383.5,208.5C 383.128,205.617 383.128,202.617 383.5,199.5C 382.167,199.5 380.833,199.5 379.5,199.5C 379.124,196.293 380.124,193.627 382.5,191.5C 383.2,170.76 384.533,150.093 386.5,129.5C 387.842,127.995 389.508,127.328 391.5,127.5C 391.5,124.833 391.5,122.167 391.5,119.5C 390.167,119.5 388.833,119.5 387.5,119.5C 387.13,116.29 385.797,113.623 383.5,111.5C 385.857,109.902 388.523,108.902 391.5,108.5 Z"/></g>
<g><path style="opacity:1" fill="#a814e2" d="M 115.5,143.5 C 115.208,149.736 114.041,155.736 112,161.5C 111.5,230.833 111.333,300.166 111.5,369.5C 111.333,398.502 111.5,427.502 112,456.5C 112.905,462.314 114.405,467.981 116.5,473.5C 117.772,475.99 119.272,478.324 121,480.5C 122.011,481.337 123.178,481.67 124.5,481.5C 125.224,483.218 125.891,485.052 126.5,487C 128.167,487.333 129.833,487.667 131.5,488C 130.672,488.915 129.672,489.581 128.5,490C 129.412,492.251 130.412,494.417 131.5,496.5C 124.163,490.2 118.497,482.534 114.5,473.5C 113.871,470.603 112.871,467.936 111.5,465.5C 111.5,464.833 111.5,464.167 111.5,463.5C 110.173,359.505 110.173,255.505 111.5,151.5C 111.5,150.833 111.5,150.167 111.5,149.5C 112.833,147.5 114.167,145.5 115.5,143.5 Z"/></g>
<g><path style="opacity:1" fill="#9999b8" d="M 277.5,161.5 C 277.5,161.167 277.5,160.833 277.5,160.5C 301.167,160.5 324.833,160.5 348.5,160.5C 348.833,245.002 348.499,329.335 347.5,413.5C 347.5,329.5 347.5,245.5 347.5,161.5C 324.167,161.5 300.833,161.5 277.5,161.5 Z"/></g>
<g><path style="opacity:1" fill="#2a2673" d="M 348.5,127.5 C 349.117,127.611 349.617,127.944 350,128.5C 350.824,226.855 350.657,325.188 349.5,423.5C 349.167,423.5 348.833,423.5 348.5,423.5C 348.747,420.061 348.414,416.728 347.5,413.5C 348.499,329.335 348.833,245.002 348.5,160.5C 348.5,157.833 348.5,155.167 348.5,152.5C 348.5,144.167 348.5,135.833 348.5,127.5 Z"/></g>
<g><path style="opacity:1" fill="#060606" d="M 289.5,235.5 C 291.722,235.178 293.556,235.845 295,237.5C 295.667,252.167 295.667,266.833 295,281.5C 292.667,282.833 290.333,282.833 288,281.5C 287.333,266.833 287.333,252.167 288,237.5C 288.717,236.956 289.217,236.289 289.5,235.5 Z"/></g>
<g><path style="opacity:1" fill="#7932ef" d="M 272.5,189.5 C 272.833,259.002 272.499,328.335 271.5,397.5C 271.666,387.828 271.5,378.161 271,368.5C 270.667,368.167 270.333,367.833 270,367.5C 268.951,369.107 267.451,369.773 265.5,369.5C 265.662,371.527 265.495,373.527 265,375.5C 264.333,376.833 263.667,376.833 263,375.5C 261.931,379.021 260.431,382.355 258.5,385.5C 257.667,400.489 257.167,415.489 257,430.5C 255.106,435.263 253.939,440.263 253.5,445.5C 254.167,446.833 254.833,448.167 255.5,449.5C 251.553,461.847 249.553,474.514 249.5,487.5C 247.533,487.261 245.699,487.594 244,488.5C 243.667,490.934 244.834,491.934 247.5,491.5C 247.134,496.373 248.467,500.706 251.5,504.5C 250.23,505.288 249.23,506.288 248.5,507.5C 246.632,508.263 244.965,509.263 243.5,510.5C 242.833,510.5 242.167,510.5 241.5,510.5C 234.833,510.5 228.167,510.5 221.5,510.5C 222.167,509.833 222.833,509.167 223.5,508.5C 225.379,508.607 225.712,508.107 224.5,507C 228.848,506.535 233.181,506.035 237.5,505.5C 237.5,502.167 237.5,498.833 237.5,495.5C 236.167,495.5 234.833,495.5 233.5,495.5C 233.762,494.022 233.429,492.689 232.5,491.5C 231.509,495.445 231.176,499.445 231.5,503.5C 229.167,503.5 226.833,503.5 224.5,503.5C 224.149,501.131 223.982,498.797 224,496.5C 225.399,495.773 226.899,495.273 228.5,495C 229.022,494.439 229.355,493.772 229.5,493C 228.115,491.403 227.449,489.57 227.5,487.5C 230.272,488.371 232.938,488.371 235.5,487.5C 235.328,485.508 235.995,483.842 237.5,482.5C 233.361,477.534 231.361,477.868 231.5,483.5C 230.167,483.5 228.833,483.5 227.5,483.5C 227.874,479.371 228.874,475.371 230.5,471.5C 231.167,473.5 231.833,475.5 232.5,477.5C 234.329,475.844 235.663,473.844 236.5,471.5C 237.744,464.443 237.411,457.443 235.5,450.5C 236.941,438.882 237.941,427.215 238.5,415.5C 240.214,416.609 240.881,415.942 240.5,413.5C 241.5,413.5 242.5,413.5 243.5,413.5C 243.5,400.833 243.5,388.167 243.5,375.5C 242.5,375.5 241.5,375.5 240.5,375.5C 241.966,370.318 242.966,364.984 243.5,359.5C 244.833,359.5 246.167,359.5 247.5,359.5C 247.187,362.247 247.52,364.914 248.5,367.5C 249.167,366.833 249.833,366.167 250.5,365.5C 251.167,350.833 251.833,336.167 252.5,321.5C 253.842,319.995 255.508,319.328 257.5,319.5C 257.5,316.833 257.5,314.167 257.5,311.5C 252.833,311.5 248.167,311.5 243.5,311.5C 243.5,309.167 243.5,306.833 243.5,304.5C 246.374,304.377 248.874,303.377 251,301.5C 251.605,303.481 252.605,303.815 254,302.5C 253.749,297.544 253.582,292.544 253.5,287.5C 256.702,285.54 260.035,284.873 263.5,285.5C 263.5,282.167 263.5,278.833 263.5,275.5C 262.178,275.67 261.011,275.337 260,274.5C 259.821,277.553 259.321,280.553 258.5,283.5C 257.571,282.311 257.238,280.978 257.5,279.5C 256.167,279.5 254.833,279.5 253.5,279.5C 253.5,276.833 253.5,274.167 253.5,271.5C 254.5,271.5 255.5,271.5 256.5,271.5C 256.5,268.833 256.5,266.167 256.5,263.5C 255.5,263.5 254.5,263.5 253.5,263.5C 253.5,260.833 253.5,258.167 253.5,255.5C 255.492,255.672 257.158,255.005 258.5,253.5C 259.487,256.768 259.82,260.102 259.5,263.5C 260.833,263.5 262.167,263.5 263.5,263.5C 263.5,258.167 263.5,252.833 263.5,247.5C 262.167,247.5 260.833,247.5 259.5,247.5C 259.5,242.167 259.5,236.833 259.5,231.5C 260.833,231.5 262.167,231.5 263.5,231.5C 263.5,228.833 263.5,226.167 263.5,223.5C 262.167,223.5 260.833,223.5 259.5,223.5C 259.5,220.833 259.5,218.167 259.5,215.5C 260.833,215.5 262.167,215.5 263.5,215.5C 263.5,214.167 263.5,212.833 263.5,211.5C 265.833,211.5 268.167,211.5 270.5,211.5C 271.27,206.04 271.937,198.706 272.5,189.5 Z"/></g>
<g><path style="opacity:0.999" fill="#2e8ade" d="M 515.5,151.5 C 516.768,153.905 517.435,156.572 517.5,159.5C 517.5,258.167 517.5,356.833 517.5,455.5C 516.261,465.98 512.761,475.646 507,484.5C 505.961,485.71 504.794,486.71 503.5,487.5C 503.5,486.167 503.5,484.833 503.5,483.5C 504.5,483.5 505.5,483.5 506.5,483.5C 506.433,482.041 506.766,480.708 507.5,479.5C 507.5,478.5 507.5,477.5 507.5,476.5C 507.343,475.127 507.51,473.793 508,472.5C 513.435,468.489 515.268,463.323 513.5,457C 514.449,456.383 515.282,456.549 516,457.5C 516.5,365.167 516.667,272.834 516.5,180.5C 516.825,173.313 516.491,166.313 515.5,159.5C 515.5,158.167 515.5,156.833 515.5,155.5C 515.5,154.167 515.5,152.833 515.5,151.5 Z"/></g>
<g><path style="opacity:0.956" fill="#173b66" d="M 517.5,159.5 C 517.833,159.5 518.167,159.5 518.5,159.5C 519.832,258.264 519.832,356.931 518.5,455.5C 518.167,455.5 517.833,455.5 517.5,455.5C 517.5,356.833 517.5,258.167 517.5,159.5 Z"/></g>
<g><path style="opacity:1" fill="#4c5aef" d="M 405.5,108.5 C 410.844,108.334 416.177,108.501 421.5,109C 416.547,109.995 411.547,110.662 406.5,111C 409.167,111.333 411.833,111.667 414.5,112C 413.892,113.231 413.559,114.564 413.5,116C 414.633,121.094 415.3,126.261 415.5,131.5C 414.884,138.888 414.884,146.222 415.5,153.5C 414.389,154.611 413.722,155.945 413.5,157.5C 414.772,161.412 414.272,165.078 412,168.5C 411.502,171.482 411.335,174.482 411.5,177.5C 410.167,177.5 408.833,177.5 407.5,177.5C 407.833,179.5 408.167,181.5 408.5,183.5C 409.5,183.5 410.5,183.5 411.5,183.5C 411.5,185.833 411.5,188.167 411.5,190.5C 410.178,190.33 409.011,190.663 408,191.5C 407.5,199.493 407.334,207.493 407.5,215.5C 406.167,215.5 404.833,215.5 403.5,215.5C 403.666,219.514 403.499,223.514 403,227.5C 401.417,229.911 400.417,232.578 400,235.5C 399.833,250.178 399.333,264.845 398.5,279.5C 398.385,284.698 396.218,288.698 392,291.5C 391.024,295.918 391.524,300.085 393.5,304C 391.98,322.431 390.646,340.931 389.5,359.5C 386.612,359.22 385.112,360.553 385,363.5C 385.318,375.157 385.318,386.823 385,398.5C 384.586,398.957 384.086,399.291 383.5,399.5C 382.671,404.802 382.171,410.136 382,415.5C 380.86,418.102 380.027,420.769 379.5,423.5C 376.833,423.5 374.167,423.5 371.5,423.5C 371.667,436.171 371.5,448.838 371,461.5C 370,462.5 369,463.5 368,464.5C 367.808,474.214 367.308,483.88 366.5,493.5C 367.135,497.367 367.801,501.2 368.5,505C 367.149,506.617 365.482,507.784 363.5,508.5C 363.709,509.086 364.043,509.586 364.5,510C 356.841,510.5 349.174,510.666 341.5,510.5C 344.759,508.668 348.092,506.835 351.5,505C 351.167,504.667 350.833,504.333 350.5,504C 353.746,491.45 354.412,478.617 352.5,465.5C 353.5,465.5 354.5,465.5 355.5,465.5C 356.074,460.352 355.407,455.518 353.5,451C 354,450.5 354.5,450 355,449.5C 355.333,446.5 355.667,443.5 356,440.5C 357.011,439.663 358.178,439.33 359.5,439.5C 359.5,435.5 359.5,431.5 359.5,427.5C 358.5,427.5 357.5,427.5 356.5,427.5C 356.737,426.209 356.404,425.209 355.5,424.5C 356.29,416.864 356.957,409.197 357.5,401.5C 359.176,400.817 359.843,399.483 359.5,397.5C 363.795,397.721 364.462,396.388 361.5,393.5C 362.697,390.911 363.697,388.244 364.5,385.5C 365.728,372.506 367.395,359.673 369.5,347C 368.98,343.184 368.647,339.351 368.5,335.5C 368.863,327.395 369.863,319.395 371.5,311.5C 372.833,311.5 374.167,311.5 375.5,311.5C 375.334,303.826 375.5,296.159 376,288.5C 378.248,287.336 380.414,286.003 382.5,284.5C 380.604,283.534 378.604,283.201 376.5,283.5C 376.5,282.167 376.5,280.833 376.5,279.5C 378.167,279.5 379.833,279.5 381.5,279.5C 381.522,275.407 382.189,271.407 383.5,267.5C 382.189,263.593 381.522,259.593 381.5,255.5C 382.833,255.5 384.167,255.5 385.5,255.5C 383.969,250.308 383.303,244.974 383.5,239.5C 384.822,239.67 385.989,239.337 387,238.5C 387.333,231.167 387.667,223.833 388,216.5C 389.011,215.663 390.178,215.33 391.5,215.5C 391.5,212.833 391.5,210.167 391.5,207.5C 389.194,207.007 386.861,206.674 384.5,206.5C 384.5,205.5 384.5,204.5 384.5,203.5C 385.5,203.5 386.5,203.5 387.5,203.5C 387.5,202.167 387.5,200.833 387.5,199.5C 388.833,199.5 390.167,199.5 391.5,199.5C 391.5,188.833 391.5,178.167 391.5,167.5C 392.833,167.5 394.167,167.5 395.5,167.5C 395.5,166.167 395.5,164.833 395.5,163.5C 394.022,163.762 392.689,163.429 391.5,162.5C 393.396,161.534 395.396,161.201 397.5,161.5C 397.834,150.986 398.501,140.486 399.5,130C 399.487,125.253 399.153,120.586 398.5,116C 400.134,115.506 401.801,115.34 403.5,115.5C 403.579,114.07 403.246,112.736 402.5,111.5C 403.34,110.265 404.34,109.265 405.5,108.5 Z"/></g>
<g><path style="opacity:1" fill="#aa11f3" d="M 124.5,481.5 C 123.178,481.67 122.011,481.337 121,480.5C 119.272,478.324 117.772,475.99 116.5,473.5C 114.405,467.981 112.905,462.314 112,456.5C 111.5,427.502 111.333,398.502 111.5,369.5C 112.496,383.99 112.829,398.657 112.5,413.5C 113.5,413.5 114.5,413.5 115.5,413.5C 115.5,406.167 115.5,398.833 115.5,391.5C 116.833,391.5 118.167,391.5 119.5,391.5C 119.5,384.167 119.5,376.833 119.5,369.5C 120.833,369.5 122.167,369.5 123.5,369.5C 123.328,367.508 123.995,365.842 125.5,364.5C 120.255,362.417 120.255,360.75 125.5,359.5C 126,347.503 126.5,335.503 127,323.5C 127.212,321.22 128.045,319.22 129.5,317.5C 128.281,314.456 127.614,311.289 127.5,308C 127.475,303.332 129.808,301.499 134.5,302.5C 134.5,297.5 134.5,292.5 134.5,287.5C 133.5,287.5 132.5,287.5 131.5,287.5C 131.5,284.833 131.5,282.167 131.5,279.5C 132.833,279.5 134.167,279.5 135.5,279.5C 135.228,267.462 135.562,255.462 136.5,243.5C 137.5,243.5 138.5,243.5 139.5,243.5C 139.5,242.5 139.5,241.5 139.5,240.5C 136.833,240.167 134.167,239.833 131.5,239.5C 129.606,232.644 132.106,228.977 139,228.5C 139.333,211.5 139.667,194.5 140,177.5C 140.689,176.643 141.522,175.977 142.5,175.5C 142.988,163.842 143.988,152.342 145.5,141C 145.012,137.034 144.012,133.201 142.5,129.5C 138.712,127.624 135.379,125.291 132.5,122.5C 133.401,121.71 134.068,120.71 134.5,119.5C 139.43,119.803 144.263,119.469 149,118.5C 152.094,118.793 153.594,120.459 153.5,123.5C 155.288,123.215 156.955,123.548 158.5,124.5C 160.176,133.665 159.51,142.665 156.5,151.5C 156.167,157.5 155.833,163.5 155.5,169.5C 155.541,176.004 156.208,182.338 157.5,188.5C 155.572,191.951 154.239,195.618 153.5,199.5C 152.167,199.5 150.833,199.5 149.5,199.5C 148.087,212.1 147.087,224.767 146.5,237.5C 145.007,239.364 144.34,241.53 144.5,244C 144.893,247.327 145.227,250.661 145.5,254C 144.239,260.111 143.406,266.277 143,272.5C 142.308,273.025 141.808,273.692 141.5,274.5C 143.029,276.707 143.695,279.207 143.5,282C 143.008,285.204 142.342,288.371 141.5,291.5C 143.415,297.632 143.915,303.966 143,310.5C 142.231,314.953 140.064,318.62 136.5,321.5C 134.802,320.319 133.135,320.319 131.5,321.5C 132.32,323.111 133.654,323.778 135.5,323.5C 135.073,326.788 135.74,329.788 137.5,332.5C 135.995,333.842 135.328,335.508 135.5,337.5C 131.932,337.759 130.599,339.759 131.5,343.5C 134.833,343.5 138.167,343.5 141.5,343.5C 141.732,350.321 138.399,352.987 131.5,351.5C 132.095,363.035 130.928,374.368 128,385.5C 127.5,403.497 127.333,421.497 127.5,439.5C 128.833,439.5 130.167,439.5 131.5,439.5C 132.324,444.445 130.324,447.112 125.5,447.5C 126.336,450.592 127.003,453.759 127.5,457C 127.608,460.238 126.941,463.238 125.5,466C 126.267,469.901 127.267,473.734 128.5,477.5C 126.231,478.005 124.897,479.338 124.5,481.5 Z"/></g>
<g><path style="opacity:1" fill="#060606" d="M 288.5,288.5 C 290.591,288.318 292.591,288.652 294.5,289.5C 295.833,304.5 295.833,319.5 294.5,334.5C 292.031,336.007 289.865,335.673 288,333.5C 287.184,318.426 287.351,303.426 288.5,288.5 Z"/></g>
<g><path style="opacity:0.086" fill="#1d0832" d="M 111.5,147.5 C 111.5,148.167 111.5,148.833 111.5,149.5C 111.5,150.167 111.5,150.833 111.5,151.5C 110.698,152.952 110.198,154.618 110,156.5C 109.333,257.5 109.333,358.5 110,459.5C 110.21,461.058 110.71,462.391 111.5,463.5C 111.5,464.167 111.5,464.833 111.5,465.5C 111.674,467.861 112.007,470.194 112.5,472.5C 109.938,467.939 108.438,462.939 108,457.5C 107.333,357.833 107.333,258.167 108,158.5C 108.416,154.471 109.583,150.804 111.5,147.5 Z"/></g>
<g><path style="opacity:1" fill="#a22cd1" d="M 111.5,151.5 C 110.173,255.505 110.173,359.505 111.5,463.5C 110.71,462.391 110.21,461.058 110,459.5C 109.333,358.5 109.333,257.5 110,156.5C 110.198,154.618 110.698,152.952 111.5,151.5 Z"/></g>
<g><path style="opacity:1" fill="#826eaf" d="M 277.5,160.5 C 277.5,160.833 277.5,161.167 277.5,161.5C 277.167,245.668 277.501,329.668 278.5,413.5C 278.5,414.167 278.167,414.5 277.5,414.5C 276.167,329.833 276.167,245.167 277.5,160.5 Z"/></g>
<g><path style="opacity:1" fill="#247df2" d="M 515.5,159.5 C 516.491,166.313 516.825,173.313 516.5,180.5C 515.503,198.993 515.17,217.659 515.5,236.5C 514.673,241.985 514.173,247.652 514,253.5C 513,254.167 512,254.833 511,255.5C 509.837,264.826 509.337,274.159 509.5,283.5C 508.167,283.5 506.833,283.5 505.5,283.5C 504.661,294.878 503.328,306.211 501.5,317.5C 501.291,320.454 501.958,323.121 503.5,325.5C 502.518,328.096 501.851,330.762 501.5,333.5C 499.549,333.227 498.049,333.893 497,335.5C 497.662,347.575 496.828,359.575 494.5,371.5C 493.836,382.208 494.503,392.875 496.5,403.5C 494.847,411.684 495.18,419.684 497.5,427.5C 497.523,429.067 497.023,430.4 496,431.5C 495.667,444.5 495.333,457.5 495,470.5C 493.479,474.623 492.645,478.957 492.5,483.5C 493.177,487.172 493.844,490.838 494.5,494.5C 490.987,494.307 487.654,494.974 484.5,496.5C 485.167,497.167 485.833,497.833 486.5,498.5C 484.618,500.31 482.618,501.977 480.5,503.5C 479.614,504.325 479.281,505.325 479.5,506.5C 471.501,510.903 462.834,512.903 453.5,512.5C 408.5,512.5 363.5,512.5 318.5,512.5C 318.5,512.167 318.5,511.833 318.5,511.5C 334.833,511.5 351.167,511.5 367.5,511.5C 377.518,511.59 387.518,511.257 397.5,510.5C 408.833,510.5 420.167,510.5 431.5,510.5C 442.187,510.832 452.854,510.499 463.5,509.5C 464.981,508.52 466.315,507.353 467.5,506C 470.277,505.949 472.943,505.782 475.5,505.5C 475.023,504.522 474.357,503.689 473.5,503C 470.776,502.73 468.109,502.23 465.5,501.5C 465.167,499.833 464.833,498.167 464.5,496.5C 464,492.131 465.5,488.798 469,486.5C 469.333,481.833 469.667,477.167 470,472.5C 471.011,471.663 472.178,471.33 473.5,471.5C 473.927,468.212 473.26,465.212 471.5,462.5C 472.689,461.571 474.022,461.238 475.5,461.5C 475.5,459.5 475.5,457.5 475.5,455.5C 474.127,455.657 472.793,455.49 471.5,455C 472.337,453.989 472.67,452.822 472.5,451.5C 473.5,451.5 474.5,451.5 475.5,451.5C 475.5,450.167 475.5,448.833 475.5,447.5C 476.5,447.5 477.5,447.5 478.5,447.5C 477.982,435.36 478.982,423.36 481.5,411.5C 479.474,397.239 478.974,382.906 480,368.5C 482.251,365.983 483.084,362.983 482.5,359.5C 484.833,359.5 487.167,359.5 489.5,359.5C 489.247,357.173 489.914,355.173 491.5,353.5C 490.372,352.738 489.205,352.071 488,351.5C 487.333,346.833 487.333,342.167 488,337.5C 490.329,336.229 491.495,334.229 491.5,331.5C 490.618,328.211 489.952,324.877 489.5,321.5C 490.136,316.56 491.636,311.894 494,307.5C 494.499,303.514 494.666,299.514 494.5,295.5C 492.167,295.5 489.833,295.5 487.5,295.5C 487.337,293.143 487.503,290.81 488,288.5C 489.699,287.594 491.533,287.261 493.5,287.5C 492.712,284.566 492.046,281.566 491.5,278.5C 491.016,275.425 492.016,273.091 494.5,271.5C 495.329,266.533 495.829,261.533 496,256.5C 497,255.5 498,254.5 499,253.5C 500.279,235.508 502.113,217.508 504.5,199.5C 505.375,196.372 506.542,193.372 508,190.5C 510.09,189.209 511.424,189.876 512,192.5C 512.993,189.592 513.493,186.592 513.5,183.5C 512.141,178.219 511.641,172.886 512,167.5C 512.741,166.359 513.575,166.359 514.5,167.5C 515.48,164.914 515.813,162.247 515.5,159.5 Z"/></g>
<g><path style="opacity:1" fill="#723cdb" d="M 275.5,127.5 C 275.5,224.833 275.5,322.167 275.5,419.5C 274.883,419.389 274.383,419.056 274,418.5C 273.459,414.338 272.959,410.172 272.5,406C 273.356,313.509 274.023,221.009 274.5,128.5C 274.5,127.833 274.833,127.5 275.5,127.5 Z"/></g>
<g><path style="opacity:1" fill="#38187f" d="M 275.5,127.5 C 275.833,127.5 276.167,127.5 276.5,127.5C 276.174,136.017 276.507,144.35 277.5,152.5C 277.5,155.167 277.5,157.833 277.5,160.5C 276.167,245.167 276.167,329.833 277.5,414.5C 277.194,417.385 277.527,420.052 278.5,422.5C 279.321,426.284 280.321,429.951 281.5,433.5C 279.449,430.342 277.783,427.008 276.5,423.5C 276.768,421.901 276.434,420.568 275.5,419.5C 275.5,322.167 275.5,224.833 275.5,127.5 Z"/></g>
<g><path style="opacity:1" fill="#1a83f4" d="M 515.5,236.5 C 515.667,277.835 515.5,319.168 515,360.5C 513.926,349.541 513.092,338.541 512.5,327.5C 511.003,347.568 510.337,367.568 510.5,387.5C 508.833,387.5 507.167,387.5 505.5,387.5C 505.5,388.833 505.5,390.167 505.5,391.5C 506.833,391.5 508.167,391.5 509.5,391.5C 509.5,392.833 509.5,394.167 509.5,395.5C 508.167,395.5 506.833,395.5 505.5,395.5C 506.012,400.585 505.345,405.419 503.5,410C 505.192,412.935 505.858,416.102 505.5,419.5C 504.178,419.33 503.011,419.663 502,420.5C 499.331,437.406 498.831,454.406 500.5,471.5C 501.064,476.104 503.398,477.771 507.5,476.5C 507.5,477.5 507.5,478.5 507.5,479.5C 506.167,479.5 504.833,479.5 503.5,479.5C 502.908,482.127 502.575,484.794 502.5,487.5C 500.409,487.682 498.409,487.348 496.5,486.5C 495.24,488.353 495.24,490.186 496.5,492C 495.934,492.995 495.267,493.828 494.5,494.5C 493.844,490.838 493.177,487.172 492.5,483.5C 492.645,478.957 493.479,474.623 495,470.5C 495.333,457.5 495.667,444.5 496,431.5C 497.023,430.4 497.523,429.067 497.5,427.5C 495.18,419.684 494.847,411.684 496.5,403.5C 494.503,392.875 493.836,382.208 494.5,371.5C 496.828,359.575 497.662,347.575 497,335.5C 498.049,333.893 499.549,333.227 501.5,333.5C 501.851,330.762 502.518,328.096 503.5,325.5C 501.958,323.121 501.291,320.454 501.5,317.5C 503.328,306.211 504.661,294.878 505.5,283.5C 506.833,283.5 508.167,283.5 509.5,283.5C 509.337,274.159 509.837,264.826 511,255.5C 512,254.833 513,254.167 514,253.5C 514.173,247.652 514.673,241.985 515.5,236.5 Z"/></g>
<g><path style="opacity:1" fill="#1687f5" d="M 516.5,180.5 C 516.667,272.834 516.5,365.167 516,457.5C 515.282,456.549 514.449,456.383 513.5,457C 515.268,463.323 513.435,468.489 508,472.5C 507.51,473.793 507.343,475.127 507.5,476.5C 503.398,477.771 501.064,476.104 500.5,471.5C 498.831,454.406 499.331,437.406 502,420.5C 503.011,419.663 504.178,419.33 505.5,419.5C 505.858,416.102 505.192,412.935 503.5,410C 505.345,405.419 506.012,400.585 505.5,395.5C 506.833,395.5 508.167,395.5 509.5,395.5C 509.5,394.167 509.5,392.833 509.5,391.5C 508.167,391.5 506.833,391.5 505.5,391.5C 505.5,390.167 505.5,388.833 505.5,387.5C 507.167,387.5 508.833,387.5 510.5,387.5C 510.337,367.568 511.003,347.568 512.5,327.5C 513.092,338.541 513.926,349.541 515,360.5C 515.5,319.168 515.667,277.835 515.5,236.5C 515.17,217.659 515.503,198.993 516.5,180.5 Z"/></g>
<g><path style="opacity:1" fill="#c2c5c4" d="M 315.5,401.5 C 305.539,403.487 295.872,406.487 286.5,410.5C 287.152,386.97 287.819,363.47 288.5,340C 290.568,339.313 292.568,339.48 294.5,340.5C 295.6,362.998 302.6,383.331 315.5,401.5 Z"/></g>
<g><path style="opacity:1" fill="#7437f0" d="M 271.5,397.5 C 271.334,407.506 271.5,417.506 272,427.5C 273.505,429.298 273.672,431.132 272.5,433C 265.844,434.935 266.178,435.768 273.5,435.5C 273.1,444.566 272.1,453.566 270.5,462.5C 271.523,464.895 270.523,465.895 267.5,465.5C 267.643,470.887 268.31,476.22 269.5,481.5C 268.833,485.5 268.167,489.5 267.5,493.5C 267.992,498.136 269.326,502.47 271.5,506.5C 264.048,508.713 256.381,509.046 248.5,507.5C 249.23,506.288 250.23,505.288 251.5,504.5C 248.467,500.706 247.134,496.373 247.5,491.5C 244.834,491.934 243.667,490.934 244,488.5C 245.699,487.594 247.533,487.261 249.5,487.5C 249.553,474.514 251.553,461.847 255.5,449.5C 254.833,448.167 254.167,446.833 253.5,445.5C 253.939,440.263 255.106,435.263 257,430.5C 257.167,415.489 257.667,400.489 258.5,385.5C 260.431,382.355 261.931,379.021 263,375.5C 263.667,376.833 264.333,376.833 265,375.5C 265.495,373.527 265.662,371.527 265.5,369.5C 267.451,369.773 268.951,369.107 270,367.5C 270.333,367.833 270.667,368.167 271,368.5C 271.5,378.161 271.666,387.828 271.5,397.5 Z"/></g>
<g><path style="opacity:1" fill="#0f0f10" d="M 315.5,401.5 C 325.941,406.092 336.608,410.092 347.5,413.5C 348.414,416.728 348.747,420.061 348.5,423.5C 348.167,423.5 347.833,423.5 347.5,423.5C 337.267,418.531 326.6,414.531 315.5,411.5C 314.939,436.837 314.272,462.17 313.5,487.5C 312.833,484.833 312.167,482.167 311.5,479.5C 310.967,456.827 310.3,434.16 309.5,411.5C 298.795,414.364 288.461,418.031 278.5,422.5C 277.527,420.052 277.194,417.385 277.5,414.5C 278.167,414.5 278.5,414.167 278.5,413.5C 281.007,412.108 283.673,411.108 286.5,410.5C 295.872,406.487 305.539,403.487 315.5,401.5 Z"/></g>
<g><path style="opacity:1" fill="#f9f9fa" d="M 311.5,479.5 C 311.963,488.831 312.463,498.164 313,507.5C 313.5,500.842 313.666,494.175 313.5,487.5C 314.272,462.17 314.939,436.837 315.5,411.5C 326.6,414.531 337.267,418.531 347.5,423.5C 336.106,452.844 324.606,482.177 313,511.5C 312.722,510.584 312.222,509.918 311.5,509.5C 311.204,507.597 310.537,505.93 309.5,504.5C 309.5,503.833 309.167,503.5 308.5,503.5C 302.592,484.364 295.592,465.697 287.5,447.5C 286.455,442.346 284.455,437.679 281.5,433.5C 280.321,429.951 279.321,426.284 278.5,422.5C 288.461,418.031 298.795,414.364 309.5,411.5C 310.3,434.16 310.967,456.827 311.5,479.5 Z"/></g>
<g><path style="opacity:1" fill="#514dd9" d="M 344.5,126.5 C 344.5,126.167 344.5,125.833 344.5,125.5C 346.565,125.517 348.565,125.85 350.5,126.5C 352.482,159.277 353.148,192.277 352.5,225.5C 352.333,282.834 352.5,340.168 353,397.5C 354.492,398.92 355.992,400.254 357.5,401.5C 356.957,409.197 356.29,416.864 355.5,424.5C 353.53,426.647 351.697,428.98 350,431.5C 350.155,433.811 350.155,436.144 350,438.5C 349.333,437.167 348.667,437.167 348,438.5C 346.891,443.828 345.224,448.828 343,453.5C 341.702,454.56 340.535,455.726 339.5,457C 338.411,461.189 337.244,465.356 336,469.5C 333.722,471.57 331.889,473.903 330.5,476.5C 331.219,474.236 331.552,471.903 331.5,469.5C 335.464,465.823 337.63,461.156 338,455.5C 344.314,445.844 348.147,435.177 349.5,423.5C 350.657,325.188 350.824,226.855 350,128.5C 349.617,127.944 349.117,127.611 348.5,127.5C 347.167,127.167 345.833,126.833 344.5,126.5 Z"/></g>
<g><path style="opacity:1" fill="#5453ef" d="M 355.5,424.5 C 356.404,425.209 356.737,426.209 356.5,427.5C 357.5,427.5 358.5,427.5 359.5,427.5C 359.5,431.5 359.5,435.5 359.5,439.5C 358.178,439.33 357.011,439.663 356,440.5C 355.667,443.5 355.333,446.5 355,449.5C 354.5,450 354,450.5 353.5,451C 355.407,455.518 356.074,460.352 355.5,465.5C 354.5,465.5 353.5,465.5 352.5,465.5C 354.412,478.617 353.746,491.45 350.5,504C 350.833,504.333 351.167,504.667 351.5,505C 348.092,506.835 344.759,508.668 341.5,510.5C 333.833,510.5 326.167,510.5 318.5,510.5C 318.993,508.194 319.326,505.861 319.5,503.5C 324.936,495.187 328.602,486.187 330.5,476.5C 331.889,473.903 333.722,471.57 336,469.5C 337.244,465.356 338.411,461.189 339.5,457C 340.535,455.726 341.702,454.56 343,453.5C 345.224,448.828 346.891,443.828 348,438.5C 348.667,437.167 349.333,437.167 350,438.5C 350.155,436.144 350.155,433.811 350,431.5C 351.697,428.98 353.53,426.647 355.5,424.5 Z"/></g>
<g><path style="opacity:1" fill="#6f3bee" d="M 274.5,128.5 C 274.023,221.009 273.356,313.509 272.5,406C 272.959,410.172 273.459,414.338 274,418.5C 274.383,419.056 274.883,419.389 275.5,419.5C 276.434,420.568 276.768,421.901 276.5,423.5C 277.557,429.565 278.89,435.565 280.5,441.5C 280.244,442.689 279.911,443.856 279.5,445C 280.394,446.396 281.061,447.896 281.5,449.5C 280.72,450.949 280.054,452.449 279.5,454C 281.072,456.919 281.739,460.085 281.5,463.5C 278.5,463.167 277.167,464.5 277.5,467.5C 278.833,467.5 280.167,467.5 281.5,467.5C 281.343,468.873 281.51,470.207 282,471.5C 282.333,471.167 282.667,470.833 283,470.5C 282.634,465.795 282.801,461.129 283.5,456.5C 284.002,455.479 284.668,455.312 285.5,456C 286.573,457.313 287.24,458.813 287.5,460.5C 285.331,464.928 285.331,469.261 287.5,473.5C 286.353,476.618 285.02,479.618 283.5,482.5C 284.415,483.328 285.081,484.328 285.5,485.5C 284.246,487.334 283.579,489.334 283.5,491.5C 284.5,491.5 285.5,491.5 286.5,491.5C 286.216,494.777 286.549,497.943 287.5,501C 284.774,501.182 282.107,501.682 279.5,502.5C 276.8,503.892 274.133,505.225 271.5,506.5C 269.326,502.47 267.992,498.136 267.5,493.5C 268.167,489.5 268.833,485.5 269.5,481.5C 268.31,476.22 267.643,470.887 267.5,465.5C 270.523,465.895 271.523,464.895 270.5,462.5C 272.1,453.566 273.1,444.566 273.5,435.5C 266.178,435.768 265.844,434.935 272.5,433C 273.672,431.132 273.505,429.298 272,427.5C 271.5,417.506 271.334,407.506 271.5,397.5C 272.499,328.335 272.833,259.002 272.5,189.5C 273.632,169.784 273.632,150.118 272.5,130.5C 272.747,129.287 273.414,128.62 274.5,128.5 Z"/></g>
<g><path style="opacity:1" fill="#4d3a8a" d="M 281.5,433.5 C 284.455,437.679 286.455,442.346 287.5,447.5C 284.188,443.481 282.188,438.815 281.5,433.5 Z"/></g>
<g><path style="opacity:1" fill="#4947bc" d="M 348.5,423.5 C 348.833,423.5 349.167,423.5 349.5,423.5C 348.147,435.177 344.314,445.844 338,455.5C 337.63,461.156 335.464,465.823 331.5,469.5C 336.853,454.117 342.519,438.784 348.5,423.5 Z"/></g>
<g><path style="opacity:1" fill="#4a398c" d="M 287.5,447.5 C 295.592,465.697 302.592,484.364 308.5,503.5C 306.814,499.308 304.647,495.308 302,491.5C 299.273,481.361 295.94,471.361 292,461.5C 291.623,460.058 290.79,459.058 289.5,458.5C 288.674,454.864 288.008,451.197 287.5,447.5 Z"/></g>
<g><path style="opacity:1" fill="#6a41ed" d="M 276.5,423.5 C 277.783,427.008 279.449,430.342 281.5,433.5C 282.188,438.815 284.188,443.481 287.5,447.5C 288.008,451.197 288.674,454.864 289.5,458.5C 290.196,462.452 290.696,466.452 291,470.5C 292.147,469.542 293.147,469.875 294,471.5C 294.384,478.228 295.218,484.895 296.5,491.5C 297.281,490.271 297.781,488.938 298,487.5C 298.333,487.833 298.667,488.167 299,488.5C 298.845,490.811 298.845,493.144 299,495.5C 299.928,497.335 301.094,497.668 302.5,496.5C 306.381,501.096 306.381,505.596 302.5,510C 282.836,510.5 263.169,510.667 243.5,510.5C 244.965,509.263 246.632,508.263 248.5,507.5C 256.381,509.046 264.048,508.713 271.5,506.5C 274.133,505.225 276.8,503.892 279.5,502.5C 282.107,501.682 284.774,501.182 287.5,501C 286.549,497.943 286.216,494.777 286.5,491.5C 285.5,491.5 284.5,491.5 283.5,491.5C 283.579,489.334 284.246,487.334 285.5,485.5C 285.081,484.328 284.415,483.328 283.5,482.5C 285.02,479.618 286.353,476.618 287.5,473.5C 285.331,469.261 285.331,464.928 287.5,460.5C 287.24,458.813 286.573,457.313 285.5,456C 284.668,455.312 284.002,455.479 283.5,456.5C 282.801,461.129 282.634,465.795 283,470.5C 282.667,470.833 282.333,471.167 282,471.5C 281.51,470.207 281.343,468.873 281.5,467.5C 280.167,467.5 278.833,467.5 277.5,467.5C 277.167,464.5 278.5,463.167 281.5,463.5C 281.739,460.085 281.072,456.919 279.5,454C 280.054,452.449 280.72,450.949 281.5,449.5C 281.061,447.896 280.394,446.396 279.5,445C 279.911,443.856 280.244,442.689 280.5,441.5C 278.89,435.565 277.557,429.565 276.5,423.5 Z"/></g>
<g><path style="opacity:0.929" fill="#350553" d="M 111.5,465.5 C 112.871,467.936 113.871,470.603 114.5,473.5C 113.833,473.167 113.167,472.833 112.5,472.5C 112.007,470.194 111.674,467.861 111.5,465.5 Z"/></g>
<g><path style="opacity:1" fill="#3a336e" d="M 347.5,423.5 C 347.833,423.5 348.167,423.5 348.5,423.5C 342.519,438.784 336.853,454.117 331.5,469.5C 326.959,480.792 322.625,492.126 318.5,503.5C 317.992,505.865 317.325,508.199 316.5,510.5C 316.957,511.298 317.624,511.631 318.5,511.5C 318.5,511.833 318.5,512.167 318.5,512.5C 315.833,512.5 313.167,512.5 310.5,512.5C 311.11,511.609 311.443,510.609 311.5,509.5C 312.222,509.918 312.722,510.584 313,511.5C 324.606,482.177 336.106,452.844 347.5,423.5 Z"/></g>
<g><path style="opacity:0.11" fill="#070d25" d="M 517.5,455.5 C 517.833,455.5 518.167,455.5 518.5,455.5C 517.681,467.798 513.514,478.798 506,488.5C 492.797,505.043 475.631,513.543 454.5,514C 430.663,514.83 406.996,514.663 383.5,513.5C 407.006,513.831 430.339,513.498 453.5,512.5C 462.834,512.903 471.501,510.903 479.5,506.5C 488.214,502.965 495.714,497.631 502,490.5C 502.513,489.473 503.013,488.473 503.5,487.5C 504.794,486.71 505.961,485.71 507,484.5C 512.761,475.646 516.261,465.98 517.5,455.5 Z"/></g>
<g><path style="opacity:1" fill="#4b41b4" d="M 331.5,469.5 C 331.552,471.903 331.219,474.236 330.5,476.5C 328.602,486.187 324.936,495.187 319.5,503.5C 319.167,503.5 318.833,503.5 318.5,503.5C 322.625,492.126 326.959,480.792 331.5,469.5 Z"/></g>
<g><path style="opacity:0.125" fill="#190424" d="M 112.5,472.5 C 113.167,472.833 113.833,473.167 114.5,473.5C 118.497,482.534 124.163,490.2 131.5,496.5C 134.208,499.209 137.208,501.542 140.5,503.5C 142.121,505.942 144.454,507.275 147.5,507.5C 148.492,507.328 149.158,507.662 149.5,508.5C 153.006,509.733 156.673,510.733 160.5,511.5C 161.5,512.167 162.5,512.833 163.5,513.5C 153.543,512.686 144.543,509.352 136.5,503.5C 131.802,499.059 126.969,494.726 122,490.5C 118.044,484.921 114.877,478.921 112.5,472.5 Z"/></g>
<g><path style="opacity:1" fill="#696a65" d="M 311.5,479.5 C 312.167,482.167 312.833,484.833 313.5,487.5C 313.666,494.175 313.5,500.842 313,507.5C 312.463,498.164 311.963,488.831 311.5,479.5 Z"/></g>
<g><path style="opacity:0.997" fill="#2683e3" d="M 507.5,479.5 C 506.766,480.708 506.433,482.041 506.5,483.5C 505.5,483.5 504.5,483.5 503.5,483.5C 503.5,484.833 503.5,486.167 503.5,487.5C 503.013,488.473 502.513,489.473 502,490.5C 495.714,497.631 488.214,502.965 479.5,506.5C 479.281,505.325 479.614,504.325 480.5,503.5C 482.618,501.977 484.618,500.31 486.5,498.5C 485.833,497.833 485.167,497.167 484.5,496.5C 487.654,494.974 490.987,494.307 494.5,494.5C 495.267,493.828 495.934,492.995 496.5,492C 495.24,490.186 495.24,488.353 496.5,486.5C 498.409,487.348 500.409,487.682 502.5,487.5C 502.575,484.794 502.908,482.127 503.5,479.5C 504.833,479.5 506.167,479.5 507.5,479.5 Z"/></g>
<g><path style="opacity:1" fill="#6647de" d="M 289.5,458.5 C 290.79,459.058 291.623,460.058 292,461.5C 295.94,471.361 299.273,481.361 302,491.5C 304.647,495.308 306.814,499.308 308.5,503.5C 309.167,503.5 309.5,503.833 309.5,504.5C 309.5,506.833 309.5,509.167 309.5,511.5C 286.833,511.5 264.167,511.5 241.5,511.5C 241.5,511.167 241.5,510.833 241.5,510.5C 242.167,510.5 242.833,510.5 243.5,510.5C 263.169,510.667 282.836,510.5 302.5,510C 306.381,505.596 306.381,501.096 302.5,496.5C 301.094,497.668 299.928,497.335 299,495.5C 298.845,493.144 298.845,490.811 299,488.5C 298.667,488.167 298.333,487.833 298,487.5C 297.781,488.938 297.281,490.271 296.5,491.5C 295.218,484.895 294.384,478.228 294,471.5C 293.147,469.875 292.147,469.542 291,470.5C 290.696,466.452 290.196,462.452 289.5,458.5 Z"/></g>
<g><path style="opacity:0.984" fill="#490a5f" d="M 140.5,503.5 C 143.1,504.468 145.434,505.801 147.5,507.5C 144.454,507.275 142.121,505.942 140.5,503.5 Z"/></g>
<g><path style="opacity:1" fill="#8035d5" d="M 149.5,508.5 C 157.981,510.138 166.647,510.805 175.5,510.5C 190.833,510.5 206.167,510.5 221.5,510.5C 228.167,510.5 234.833,510.5 241.5,510.5C 241.5,510.833 241.5,511.167 241.5,511.5C 216.167,511.5 190.833,511.5 165.5,511.5C 163.833,511.5 162.167,511.5 160.5,511.5C 156.673,510.733 153.006,509.733 149.5,508.5 Z"/></g>
<g><path style="opacity:1" fill="#6041ac" d="M 309.5,504.5 C 310.537,505.93 311.204,507.597 311.5,509.5C 311.443,510.609 311.11,511.609 310.5,512.5C 261.997,512.832 213.664,512.499 165.5,511.5C 190.833,511.5 216.167,511.5 241.5,511.5C 264.167,511.5 286.833,511.5 309.5,511.5C 309.5,509.167 309.5,506.833 309.5,504.5 Z"/></g>
<g><path style="opacity:0.688" fill="#11073a" d="M 160.5,511.5 C 162.167,511.5 163.833,511.5 165.5,511.5C 213.664,512.499 261.997,512.832 310.5,512.5C 313.167,512.5 315.833,512.5 318.5,512.5C 363.5,512.5 408.5,512.5 453.5,512.5C 430.339,513.498 407.006,513.831 383.5,513.5C 310.184,513.62 236.851,513.62 163.5,513.5C 162.5,512.833 161.5,512.167 160.5,511.5 Z"/></g>
</svg>
